<?xml version="1.0" standalone="no"?>
<!DOCTYPE svg PUBLIC "-//W3C//DTD SVG 20010904//EN"
 "http://www.w3.org/TR/2001/REC-SVG-20010904/DTD/svg10.dtd">
<svg version="1.0" xmlns="http://www.w3.org/2000/svg"
 width="800.000000pt" height="800.000000pt" viewBox="0 0 800.000000 800.000000"
 preserveAspectRatio="xMidYMid meet">
<metadata>
Created by potrace 1.14, written by Peter Selinger 2001-2017
</metadata>
<g transform="translate(0.000000,800.000000) scale(0.100000,-0.100000)"
fill="#000000" stroke="none">
<path d="M4157 7524 c-1 -2 -20 -4 -41 -6 -20 -1 -40 -6 -42 -10 -3 -4 -17 -5
-32 -2 -15 3 -40 -1 -57 -10 -16 -9 -36 -16 -43 -16 -7 0 -11 -4 -8 -9 4 -5
-7 -15 -24 -23 -19 -8 -28 -18 -25 -27 4 -11 2 -11 -9 -2 -11 9 -15 9 -18 0
-2 -7 -21 -14 -41 -15 -21 -2 -50 -10 -65 -18 -15 -8 -44 -17 -64 -21 -21 -3
-43 -11 -50 -18 -7 -7 -33 -21 -58 -32 -25 -10 -65 -30 -90 -44 -25 -14 -46
-25 -47 -23 -2 1 -4 2 -5 1 -2 0 -16 -2 -32 -4 -16 -2 -32 -8 -35 -13 -3 -5
-14 -12 -24 -15 -11 -4 -21 -15 -23 -25 -7 -25 -83 -67 -97 -53 -13 13 -30 15
-22 2 12 -21 -19 -23 -36 -3 -14 18 -18 19 -23 6 -3 -8 1 -25 9 -37 13 -21 13
-24 -5 -40 -11 -9 -25 -17 -30 -17 -6 0 -10 -4 -10 -9 0 -6 -20 -24 -45 -42
-24 -17 -42 -35 -40 -39 6 -10 -40 -52 -48 -43 -4 3 -7 2 -7 -4 0 -6 -11 -27
-25 -47 -13 -20 -22 -36 -20 -36 3 0 -9 -28 -26 -62 -17 -35 -37 -81 -43 -103
-9 -30 -20 -44 -46 -57 -21 -10 -28 -17 -17 -18 31 0 22 -19 -28 -55 -16 -12
-17 -16 -6 -24 11 -7 9 -10 -8 -16 -30 -9 -26 -27 4 -19 20 5 25 2 25 -13 0
-11 -11 -32 -25 -47 -14 -15 -36 -44 -50 -64 -14 -20 -29 -35 -33 -32 -4 3 -8
-5 -10 -16 -2 -12 -18 -39 -35 -60 -42 -51 -59 -85 -56 -115 4 -44 -1 -69 -13
-67 -7 2 -12 -4 -13 -12 0 -8 -4 -24 -8 -36 -4 -12 -3 -32 2 -45 l10 -24 0 25
c1 24 35 90 46 90 4 0 3 -5 0 -10 -6 -10 4 -24 75 -106 14 -16 37 -35 53 -41
15 -7 27 -17 27 -22 0 -5 8 -10 18 -10 9 0 29 -3 45 -7 25 -6 27 -4 27 22 0
26 1 27 16 12 13 -12 16 -35 15 -98 -1 -45 -4 -92 -6 -104 -3 -11 1 -59 9
-105 8 -47 13 -88 10 -93 -3 -5 -1 -14 4 -21 21 -26 47 -282 34 -324 -7 -22
-21 -14 -92 52 -50 47 -74 63 -87 58 -50 -18 -65 -64 -32 -99 12 -13 29 -24
36 -24 8 0 25 -12 39 -27 23 -25 25 -25 38 -8 12 17 15 17 49 -11 35 -27 55
-73 43 -93 -8 -13 -8 -679 0 -692 8 -13 32 -116 43 -179 9 -56 30 -110 42
-110 5 0 7 -11 3 -24 -4 -16 3 -39 19 -69 14 -25 23 -47 21 -50 -13 -13 114
-208 160 -246 10 -8 31 -34 47 -57 38 -56 45 -118 61 -524 1 -21 -3 -30 -12
-25 -15 9 -41 -64 -47 -137 -9 -104 31 -222 137 -408 27 -47 70 -132 96 -190
25 -58 66 -149 90 -202 24 -54 44 -102 44 -108 0 -20 -16 -10 -27 17 -56 136
-149 340 -227 498 -109 220 -126 271 -126 375 0 66 4 86 31 138 17 34 29 70
26 79 -7 30 -55 -85 -67 -159 -7 -46 -7 -96 -1 -155 9 -76 18 -103 64 -198 30
-60 65 -137 77 -170 13 -33 39 -92 57 -131 18 -40 33 -75 33 -79 0 -4 28 -66
61 -137 34 -71 59 -132 55 -135 -3 -4 -8 -4 -10 -2 -7 8 -95 198 -134 289 -22
52 -52 120 -66 150 -14 30 -26 66 -26 80 0 14 -7 39 -16 55 -65 123 -87 173
-99 227 l-13 63 -3 -55 -2 -55 -7 55 -6 55 -8 -40 c-15 -80 -21 -90 -50 -92
-37 -3 -39 -6 -14 -22 11 -7 17 -8 13 -2 -3 6 -1 11 4 11 6 0 11 -9 11 -20 0
-12 -7 -20 -17 -20 -30 -1 -100 -37 -100 -52 0 -23 -45 -77 -83 -101 -27 -17
-51 -22 -107 -22 -43 0 -78 -6 -85 -13 -9 -9 4 -12 63 -12 62 0 83 5 131 29
32 17 54 23 52 16 -11 -27 -106 -59 -179 -60 -73 -1 -124 -20 -192 -72 -18
-13 -33 -20 -33 -15 0 5 18 22 40 37 50 35 52 44 4 16 -25 -15 -40 -19 -48
-11 -9 7 -19 3 -36 -15 -13 -13 -26 -22 -31 -19 -4 2 -22 -17 -40 -43 -18 -27
-44 -61 -58 -77 l-26 -30 25 16 c14 8 40 34 58 57 17 24 32 39 32 35 0 -14
-81 -114 -92 -114 -6 0 -8 -3 -5 -6 4 -4 18 1 32 10 14 9 25 13 25 9 0 -5 5
-1 10 7 8 13 10 13 10 1 0 -8 -10 -26 -22 -39 -13 -14 -17 -22 -10 -18 18 11
15 0 -13 -43 -13 -22 -33 -42 -44 -46 -12 -3 -36 -35 -56 -74 -25 -47 -62 -93
-117 -147 -81 -78 -117 -136 -118 -186 0 -16 -4 -28 -9 -28 -12 0 5 83 25 125
9 19 49 65 90 102 52 48 84 87 109 135 24 45 46 73 66 84 33 16 34 38 3 40
-10 1 -36 2 -57 3 -23 0 -36 5 -32 11 4 6 28 8 58 5 37 -3 45 -2 27 4 -14 5
-56 9 -95 10 -66 0 -68 -1 -45 -14 23 -13 23 -14 5 -15 -33 0 -132 -109 -161
-176 -19 -43 -24 -50 -20 -26 8 48 31 92 71 136 20 21 43 50 53 64 l16 25 -74
-6 c-68 -5 -73 -5 -50 8 14 8 50 15 80 15 30 1 73 5 95 9 26 6 6 7 -60 4 -97
-5 -166 -25 -166 -48 0 -5 -7 -17 -14 -25 -8 -9 -19 -38 -25 -65 -9 -42 -115
-264 -183 -384 -29 -53 -217 -430 -217 -437 0 -10 -60 -146 -113 -254 -28 -58
-64 -141 -79 -185 -16 -48 -27 -70 -28 -54 0 43 29 130 80 231 27 53 69 146
94 206 50 122 147 320 302 614 106 202 147 313 119 324 -7 3 -33 -5 -57 -17
-42 -21 -43 -21 -24 -1 10 12 35 26 55 33 20 6 59 24 86 39 28 15 59 30 70 33
15 3 16 5 3 6 -9 0 -49 -15 -89 -34 -41 -19 -79 -35 -85 -35 -6 0 -17 -7 -24
-15 -14 -17 -35 -21 -25 -5 9 15 -7 11 -30 -6 -19 -16 -19 -16 5 -10 28 7 29
9 -48 -42 l-35 -24 18 29 c18 28 18 28 -2 11 -18 -16 -21 -16 -42 -2 -12 9
-25 13 -28 10 -4 -3 0 -6 7 -6 9 0 7 -5 -6 -15 -19 -15 -19 -15 1 -8 18 6 18
5 6 -10 -18 -22 -3 -22 23 0 12 10 15 11 9 3 -17 -19 -17 -35 0 -21 8 6 17 8
20 4 4 -3 14 0 22 7 13 11 12 3 -5 -40 -11 -29 -32 -62 -46 -72 -28 -23 -47
-56 -70 -125 -9 -26 -34 -77 -55 -113 -21 -36 -57 -112 -79 -170 -64 -163 -82
-200 -130 -265 -24 -33 -59 -85 -78 -115 -32 -51 -34 -52 -28 -22 3 19 33 70
68 115 59 79 115 186 163 311 12 34 45 105 74 159 28 53 51 104 51 113 0 26
38 91 67 114 27 21 52 56 53 73 0 5 -10 7 -22 5 -14 -2 -22 -9 -20 -19 1 -8
-9 -22 -23 -29 -34 -18 -49 -44 -73 -122 -30 -96 -197 -424 -252 -493 -26 -33
-62 -82 -79 -109 -20 -33 -31 -43 -31 -30 0 22 17 49 83 134 62 78 228 391
261 492 32 100 41 115 79 138 28 17 29 20 11 26 -10 3 -31 11 -47 16 -33 13
-119 3 -158 -18 -34 -17 -43 -18 -33 -3 3 6 20 17 38 25 19 8 24 13 13 14 -10
0 -29 -7 -42 -16 -14 -9 -41 -22 -61 -29 -32 -11 -39 -19 -59 -76 -36 -102
-59 -140 -135 -214 -70 -69 -140 -180 -140 -223 0 -10 -3 -22 -7 -26 -10 -10
-4 -90 12 -171 29 -138 62 -260 68 -245 13 37 27 167 27 254 0 58 4 97 11 102
15 9 2 -260 -17 -344 -8 -35 -14 -78 -14 -95 -1 -23 -3 -28 -9 -17 -9 15 -53
191 -71 280 -5 25 -14 70 -21 101 -6 31 -10 74 -7 97 2 23 0 42 -4 42 -5 0 -8
10 -7 23 0 21 1 21 8 2 7 -17 10 -14 21 20 25 79 71 151 141 219 39 38 77 83
86 99 18 36 54 139 50 143 -2 2 -13 1 -24 -2 -16 -4 -27 -21 -39 -56 -12 -37
-38 -74 -95 -135 -44 -47 -90 -109 -104 -139 -27 -57 -37 -68 -27 -31 11 46
68 133 129 198 42 44 69 83 80 114 12 35 23 51 47 61 l31 15 -30 -5 c-62 -10
-91 -20 -135 -48 -25 -15 -57 -33 -72 -39 -20 -8 -29 -20 -34 -45 -3 -19 -10
-34 -15 -34 -12 0 -11 27 2 52 10 18 9 20 -6 15 -9 -4 -33 -8 -53 -8 -36 -1
-37 -1 -7 -8 37 -8 25 -16 -35 -25 -25 -4 -56 -16 -70 -27 -18 -15 -19 -18 -5
-11 11 5 38 13 60 16 22 4 51 10 64 13 16 4 22 2 17 -5 -3 -6 2 -15 11 -21 31
-17 2 -43 -74 -65 -48 -14 -84 -32 -110 -56 -21 -19 -34 -32 -29 -28 58 44
-59 -99 -165 -201 -47 -46 -51 -52 -45 -84 5 -29 0 -44 -39 -102 -25 -38 -45
-76 -46 -85 -1 -23 -32 -72 -52 -82 -9 -4 -25 -12 -34 -17 -10 -4 -19 -15 -21
-24 -3 -15 -1 -15 25 -2 15 8 33 15 39 15 6 0 17 11 24 25 7 14 15 23 17 21 6
-6 -17 -49 -31 -58 -6 -4 -21 -8 -32 -8 -12 0 -25 -7 -28 -16 -3 -8 -10 -12
-16 -9 -5 3 -10 -3 -10 -14 0 -11 -9 -43 -20 -71 -25 -65 -25 -79 1 -21 33 74
30 40 -3 -41 -17 -43 -36 -75 -40 -72 -5 3 -6 -7 -2 -22 5 -18 3 -25 -4 -20
-6 3 -14 1 -18 -5 -3 -6 -1 -15 5 -19 9 -5 8 -10 -4 -20 -11 -9 -14 -22 -10
-44 5 -26 4 -28 -5 -13 -11 18 -13 18 -32 0 -11 -10 -24 -27 -29 -38 -6 -11 4
-4 21 15 39 44 39 27 0 -24 -17 -22 -30 -45 -30 -52 0 -6 -6 -14 -14 -17 -8
-3 -20 -16 -27 -29 -12 -23 -12 -23 10 -4 11 11 24 16 28 12 4 -3 -10 -20 -30
-37 -39 -32 -65 -69 -48 -69 5 0 24 14 42 31 35 33 49 27 48 -21 0 -20 -2 -22
-7 -7 -7 17 -10 16 -51 -5 -50 -27 -85 -68 -57 -68 9 0 34 16 56 36 22 20 40
33 40 30 0 -21 -25 -47 -70 -75 -52 -32 -70 -68 -27 -55 12 3 29 12 37 19 29
23 38 25 44 8 4 -10 4 -14 0 -10 -4 4 -14 1 -23 -7 -9 -7 -29 -18 -46 -23 -18
-6 -31 -17 -33 -30 -3 -17 2 -19 28 -15 17 2 37 14 45 25 12 17 15 18 15 5 0
-19 -21 -37 -49 -43 -30 -6 -41 -14 -41 -31 0 -11 6 -13 20 -9 20 6 28 -9 10
-20 -13 -8 -13 -62 -1 -70 5 -3 11 5 13 17 2 15 11 24 26 26 12 2 22 -1 22 -6
0 -5 -7 -9 -17 -8 -10 0 -19 -10 -24 -26 -6 -23 -4 -28 9 -28 10 0 23 9 30 21
7 12 16 18 19 15 3 -3 0 -12 -7 -21 -11 -13 -8 -15 18 -15 17 0 33 6 35 13 4
9 6 9 6 0 2 -22 30 -14 35 9 3 13 17 77 32 143 15 66 30 152 34 190 3 39 16
90 28 115 12 25 22 53 22 63 0 9 12 50 26 90 15 39 32 92 40 117 11 39 13 41
13 15 0 -16 -7 -48 -15 -70 -9 -22 -29 -84 -44 -138 -16 -53 -36 -107 -45
-119 -9 -13 -15 -44 -15 -73 0 -40 -24 -169 -64 -337 -3 -12 2 -18 13 -18 14
0 23 26 49 143 18 79 32 167 32 195 0 32 7 63 19 84 10 18 24 56 30 83 16 78
70 225 71 193 0 -15 -9 -51 -20 -80 -11 -29 -27 -82 -36 -118 -9 -36 -25 -79
-35 -96 -13 -21 -19 -50 -19 -90 0 -33 -11 -109 -25 -169 -30 -134 -31 -145
-5 -145 14 0 20 7 20 23 0 12 12 69 26 127 17 71 24 119 20 148 -4 31 -1 53
13 80 10 20 29 73 41 117 49 174 49 172 49 143 1 -34 -44 -200 -70 -256 -12
-27 -19 -64 -19 -102 0 -51 -8 -94 -45 -258 -4 -18 -1 -22 18 -22 21 0 24 9
46 115 14 69 21 129 18 151 -4 26 0 50 13 79 11 23 30 83 42 134 13 50 26 91
31 91 4 0 7 -6 7 -13 0 -22 -48 -188 -66 -225 -12 -25 -15 -50 -11 -87 4 -35
-1 -77 -14 -126 -25 -94 -25 -119 0 -119 16 0 23 17 42 103 17 72 25 93 27 72
3 -26 -8 -101 -24 -157 -4 -14 1 -18 19 -18 21 0 26 7 36 44 6 25 11 56 11 70
0 14 5 26 11 26 12 0 8 -67 -7 -117 -5 -20 -2 -23 19 -23 26 0 37 16 37 56 0
13 5 24 11 24 7 0 10 -15 7 -40 l-3 -39 52 0 c49 1 53 3 53 25 0 14 11 75 24
137 13 62 29 164 35 227 7 63 16 119 21 126 6 6 22 33 36 60 14 27 30 53 35
58 15 17 19 1 5 -24 -7 -14 -25 -47 -39 -73 -21 -39 -30 -80 -46 -206 -11 -87
-27 -184 -36 -217 -22 -86 -20 -114 8 -114 22 0 25 7 45 118 12 64 29 171 38
237 12 89 22 132 41 168 15 26 30 47 35 47 12 0 10 -6 -16 -58 -18 -35 -31
-96 -50 -227 -15 -99 -31 -200 -36 -225 -13 -62 -13 -60 14 -60 15 0 27 7 30
18 17 61 58 336 54 366 -3 25 30 106 44 106 11 0 11 -2 -9 -46 -9 -22 -15 -54
-14 -71 1 -18 -10 -102 -24 -187 -31 -191 -31 -186 0 -186 14 0 25 2 25 5 0
10 41 261 47 282 3 13 8 21 13 18 4 -2 -4 -69 -16 -147 -13 -79 -24 -146 -24
-150 0 -5 11 -8 25 -8 27 0 25 -7 50 143 10 55 21 95 26 90 5 -5 0 -57 -11
-117 -11 -60 -20 -111 -20 -113 0 -9 49 -1 54 10 5 9 7 9 12 0 3 -7 9 -13 13
-13 4 0 27 80 51 178 85 355 101 417 110 426 17 17 11 -15 -24 -139 -19 -66
-48 -191 -65 -277 -17 -86 -34 -164 -37 -172 -5 -12 0 -16 20 -16 29 0 25 -9
51 148 15 94 55 236 76 272 19 33 8 -17 -30 -143 -22 -71 -43 -154 -46 -185
-4 -31 -9 -65 -11 -74 -4 -13 0 -18 13 -18 14 0 21 13 31 53 7 28 21 79 32
112 19 58 19 59 13 15 -6 -45 -26 -130 -38 -162 -6 -14 -2 -18 18 -18 14 0 28
6 30 13 4 9 6 9 6 0 1 -9 20 -13 60 -13 l58 0 17 91 c11 57 49 177 105 327 49
130 108 296 130 367 24 74 86 224 145 350 107 227 132 292 146 373 7 43 8 44
9 12 2 -76 -28 -160 -152 -420 -72 -153 -99 -222 -156 -400 -22 -69 -69 -203
-105 -298 -72 -191 -110 -308 -119 -365 -5 -34 -4 -37 18 -37 18 0 24 7 30 38
4 20 36 116 72 212 75 200 86 234 142 421 51 172 94 283 166 434 62 129 105
241 106 277 0 13 5 32 10 43 6 14 7 4 3 -30 -11 -94 -29 -147 -96 -280 -60
-120 -146 -351 -189 -510 -16 -60 -47 -157 -68 -215 -85 -229 -131 -361 -131
-375 0 -9 9 -15 23 -15 20 0 29 19 89 188 37 103 92 276 123 382 57 198 104
331 178 494 22 50 51 125 63 166 17 56 23 67 23 43 1 -39 -29 -125 -108 -313
-61 -144 -116 -308 -165 -490 -14 -53 -55 -180 -90 -283 l-65 -187 28 0 c27 0
29 4 80 155 29 85 63 201 77 258 34 140 98 340 151 472 67 164 84 214 98 280
11 50 13 54 14 25 1 -52 -22 -135 -78 -273 -64 -158 -145 -407 -171 -527 -17
-76 -80 -281 -115 -372 -6 -15 -2 -18 23 -18 29 0 30 1 65 123 19 67 45 165
58 217 28 122 50 192 149 480 45 129 79 216 76 193 -7 -46 -18 -81 -119 -379
-36 -105 -75 -234 -86 -288 -24 -109 -66 -273 -81 -312 -13 -34 -13 -34 15
-34 28 0 26 -7 80 228 36 152 71 273 126 437 17 50 41 128 54 175 13 47 24 76
24 64 1 -31 -33 -158 -93 -349 -59 -185 -75 -242 -111 -411 -14 -61 -27 -118
-31 -127 -5 -13 0 -17 19 -17 23 0 26 6 40 73 9 39 18 88 21 108 4 19 36 138
72 265 36 126 72 261 79 299 l14 70 -5 -60 c-6 -66 -34 -184 -95 -398 -21 -76
-46 -177 -55 -225 -8 -48 -18 -97 -21 -109 -4 -18 -1 -23 15 -23 24 0 28 8 47
118 8 49 24 122 35 163 26 94 73 315 94 444 56 334 193 760 353 1100 141 300
152 320 201 380 26 34 47 65 45 71 -2 5 11 11 29 12 33 3 33 2 10 -13 -28 -20
-124 -149 -157 -212 -55 -105 -174 -374 -210 -473 -20 -58 -45 -127 -55 -155
-16 -44 -68 -204 -113 -350 -40 -129 -79 -295 -107 -460 -17 -99 -43 -227 -56
-285 -14 -58 -34 -150 -44 -205 -10 -55 -21 -108 -25 -117 -6 -14 -2 -18 17
-18 23 0 25 6 42 98 10 53 28 149 42 212 13 63 35 180 49 260 35 197 110 456
287 988 80 240 177 450 254 552 28 36 60 81 72 101 21 36 62 78 62 65 0 -4 -8
-19 -18 -34 -11 -15 -31 -45 -46 -67 -14 -22 -44 -62 -66 -90 -96 -121 -198
-385 -389 -1009 -106 -345 -123 -408 -155 -586 -14 -74 -34 -184 -46 -245 -47
-248 -47 -245 -21 -245 20 0 20 0 87 380 14 80 32 172 40 205 56 223 391 1257
439 1352 19 38 60 98 91 133 31 36 66 88 79 115 23 51 64 105 79 105 5 0 2 -8
-8 -18 -9 -10 -29 -45 -45 -78 -16 -32 -49 -82 -74 -110 -25 -27 -62 -78 -81
-111 -44 -75 -163 -427 -373 -1103 -95 -309 -107 -360 -190 -837 -4 -28 -2
-33 15 -33 25 0 25 0 56 185 48 281 48 284 259 960 112 358 247 765 268 805
10 19 41 59 69 88 28 29 63 78 76 109 14 31 40 77 57 101 22 31 28 46 19 49
-6 3 -9 10 -5 15 4 8 -2 9 -18 4 -13 -4 -40 -9 -59 -12 -24 -3 -12 4 34 21 38
13 77 32 88 41 10 10 18 12 18 6 0 -6 -10 -18 -22 -28 l-23 -16 23 5 c22 5 23
4 8 -12 -9 -10 -16 -25 -16 -34 0 -8 -11 -28 -24 -44 -14 -16 -36 -55 -50 -86
-14 -33 -51 -84 -88 -124 l-64 -68 -76 -230 c-74 -221 -154 -473 -253 -790
-26 -82 -64 -206 -86 -274 -43 -137 -76 -276 -114 -486 -14 -77 -27 -150 -30
-163 -4 -18 -1 -22 19 -22 21 0 25 6 31 43 12 74 65 340 81 402 8 33 41 143
74 245 32 102 75 241 95 310 20 69 50 166 65 215 16 50 41 137 56 195 15 58
40 137 56 175 17 39 46 117 65 175 60 182 71 205 122 253 28 27 66 80 89 124
22 43 47 87 56 98 l15 20 15 -20 c10 -12 16 -43 16 -80 1 -33 5 -82 9 -108 4
-26 5 -50 1 -52 -8 -5 -8 -7 -16 115 -4 52 -10 101 -13 108 -5 8 -27 -21 -60
-80 -31 -55 -71 -109 -97 -133 -41 -37 -48 -51 -93 -185 -27 -80 -63 -176 -80
-213 -18 -38 -43 -112 -57 -165 -45 -173 -147 -516 -238 -804 -44 -140 -146
-579 -146 -629 0 -5 11 -9 23 -9 23 0 25 8 56 163 43 211 91 400 146 567 24
74 69 232 100 350 32 118 70 262 85 320 15 58 55 164 87 235 33 72 73 172 88
223 23 74 35 99 62 123 19 16 48 56 65 89 17 34 33 59 35 56 3 -2 -2 -15 -10
-28 -8 -12 -20 -39 -26 -59 -6 -19 -24 -45 -40 -57 -23 -17 -37 -45 -66 -133
-21 -61 -61 -161 -90 -222 -29 -62 -63 -145 -74 -184 -12 -40 -31 -106 -42
-145 -12 -40 -41 -154 -64 -253 -24 -99 -64 -242 -89 -317 -25 -75 -55 -174
-66 -220 -19 -72 -110 -491 -110 -503 0 -14 49 -3 53 13 7 23 29 123 72 322
47 220 51 236 96 377 22 68 51 180 65 250 62 308 104 441 204 650 39 81 84
190 100 242 21 67 38 101 55 116 16 13 29 36 34 65 l9 45 1 -43 c1 -33 -4 -48
-23 -65 -14 -13 -34 -56 -50 -105 -14 -46 -51 -138 -82 -205 -31 -67 -71 -153
-89 -192 -55 -120 -109 -317 -145 -525 -10 -63 -34 -162 -53 -220 -39 -119
-51 -167 -103 -405 -20 -93 -44 -205 -54 -247 l-17 -78 27 0 c24 0 28 5 38 52
82 379 126 570 146 635 32 100 50 185 76 348 21 136 73 311 121 406 50 100
176 393 190 439 17 61 33 77 26 25 -7 -42 -34 -115 -88 -232 -17 -37 -39 -88
-49 -113 -10 -25 -32 -71 -49 -102 -49 -89 -117 -309 -136 -438 -23 -158 -42
-249 -75 -360 -15 -52 -54 -214 -85 -360 -31 -146 -58 -273 -61 -283 -5 -15
-1 -18 22 -15 25 3 29 9 40 58 6 30 26 123 43 205 18 83 37 175 42 205 6 30
23 100 39 155 16 55 39 165 50 245 11 80 25 170 31 200 19 94 80 271 124 360
23 47 64 139 91 205 49 122 83 189 91 181 2 -2 -9 -30 -25 -62 -16 -33 -44
-99 -62 -149 -18 -49 -52 -128 -75 -175 -82 -165 -137 -365 -165 -605 -7 -55
-23 -140 -36 -190 -22 -80 -134 -606 -134 -627 0 -4 11 -8 24 -8 21 0 25 7 40
87 35 178 97 469 106 497 6 17 17 93 26 170 8 78 22 173 30 211 20 100 101
350 134 416 16 30 52 123 80 205 53 152 69 191 70 166 0 -21 -89 -279 -126
-363 -41 -93 -116 -324 -144 -440 -11 -47 -27 -150 -35 -229 -8 -79 -20 -160
-25 -181 -6 -21 -22 -92 -35 -158 -14 -67 -36 -176 -50 -243 -30 -146 -30
-138 -5 -138 22 0 20 -5 49 160 11 63 32 165 45 225 14 61 32 169 41 240 8 72
20 156 26 188 11 64 89 322 139 463 17 49 54 154 81 234 27 80 52 152 55 160
4 12 6 13 14 0 5 -8 5 -19 -1 -26 -5 -6 -22 -55 -39 -109 -16 -55 -45 -140
-64 -189 -51 -133 -156 -476 -177 -580 -10 -50 -23 -136 -29 -190 -6 -55 -22
-154 -36 -220 -24 -115 -64 -332 -64 -349 0 -5 8 -7 17 -5 13 2 21 30 39 133
47 281 85 493 100 560 30 129 142 498 224 735 36 104 48 153 44 175 -10 50 3
24 35 -70 18 -52 26 -92 21 -95 -11 -7 -84 -214 -125 -355 -123 -417 -176
-648 -224 -963 l-18 -122 27 0 c26 0 27 0 39 113 33 296 134 729 251 1076 44
128 81 236 84 239 20 20 7 -30 -59 -224 -86 -252 -160 -535 -204 -779 -25
-140 -61 -385 -61 -417 0 -4 11 -8 25 -8 28 0 25 -12 56 220 21 160 46 302 74
425 59 255 119 475 153 561 34 87 52 145 78 259 3 17 8 25 11 18 9 -24 -27
-173 -70 -288 -25 -66 -60 -181 -77 -255 -17 -74 -33 -137 -35 -140 -11 -18
-88 -414 -110 -565 -14 -99 -27 -192 -30 -207 -4 -24 -1 -28 20 -28 29 0 24
-21 70 280 20 129 47 285 61 345 30 138 124 494 158 600 22 70 25 75 25 43 1
-21 -12 -79 -28 -130 -16 -51 -41 -142 -56 -203 -14 -60 -39 -154 -55 -210
-16 -55 -36 -143 -44 -195 -35 -227 -77 -487 -81 -507 -5 -20 -1 -23 24 -23
l28 0 22 138 c12 75 30 202 41 282 11 80 34 197 51 260 17 63 39 151 49 195
10 44 27 116 38 160 11 44 23 91 26 105 3 14 3 -2 1 -36 -4 -58 -40 -220 -90
-404 -13 -47 -30 -132 -39 -190 -29 -193 -67 -445 -73 -477 -5 -30 -3 -33 20
-33 22 0 27 6 31 33 3 17 14 86 25 152 21 126 35 231 51 378 6 48 16 115 25
150 26 111 74 380 85 471 5 49 21 125 34 170 14 44 39 141 56 213 17 73 36
136 42 139 15 9 3 -51 -48 -244 -25 -92 -56 -230 -70 -307 -27 -153 -41 -231
-78 -435 -14 -74 -32 -202 -41 -285 -8 -82 -24 -193 -34 -245 -11 -52 -22
-116 -26 -143 -7 -46 -6 -47 18 -47 28 0 25 -7 52 140 18 103 51 349 60 445 6
68 38 260 91 535 15 74 48 216 74 315 26 99 53 204 60 233 7 28 17 55 23 59 7
4 8 -2 3 -18 -4 -13 -11 -42 -16 -64 -23 -112 -52 -234 -74 -317 -30 -112
-130 -653 -146 -793 -16 -141 -37 -291 -58 -422 -18 -108 -18 -113 -1 -113 29
0 84 138 108 270 20 115 63 432 72 530 9 111 19 171 30 185 18 24 79 181 90
233 8 41 13 52 20 40 12 -21 -21 -129 -71 -233 -34 -70 -40 -95 -50 -195 -6
-63 -17 -154 -26 -202 -8 -47 -19 -131 -24 -185 -13 -134 -52 -308 -84 -378
-31 -69 -31 -65 -6 -65 11 0 20 5 20 11 0 5 11 34 25 62 36 78 80 271 90 402
3 44 17 121 30 171 17 60 24 115 24 165 -1 95 8 142 38 203 87 173 113 295
113 534 0 108 3 139 17 163 10 16 23 29 30 29 17 0 17 -17 -1 -27 -13 -8 -36
-252 -36 -389 0 -72 -28 -170 -76 -268 -19 -39 -34 -72 -34 -74 0 -2 14 8 31
22 17 14 34 26 39 26 11 0 66 176 86 275 11 50 18 141 19 243 1 104 6 167 13
174 7 7 14 10 16 7 4 -4 -2 -90 -23 -354 -7 -80 -21 -154 -41 -223 -16 -56
-30 -106 -30 -111 0 -6 10 -13 23 -17 12 -3 29 -13 38 -20 14 -13 18 -10 33
29 9 23 16 54 16 69 0 14 7 43 17 64 9 22 24 75 34 119 9 44 24 112 33 150 9
39 19 126 22 195 7 130 18 180 34 164 6 -6 6 -22 0 -44 -5 -19 -13 -91 -16
-160 -4 -72 -14 -150 -24 -185 -9 -33 -20 -82 -24 -110 -4 -27 -18 -84 -31
-125 -51 -158 -57 -190 -49 -243 l8 -52 8 59 c4 32 16 77 27 100 21 46 42 122
76 279 13 59 30 129 39 155 9 26 18 92 21 147 6 112 24 210 36 198 8 -8 -14
-246 -30 -323 -5 -25 -19 -90 -30 -145 -20 -97 -39 -165 -87 -310 -13 -38 -28
-99 -34 -135 -6 -36 -24 -90 -40 -121 -17 -31 -30 -64 -30 -73 0 -9 -11 -58
-24 -109 -14 -50 -32 -139 -41 -197 -31 -197 -45 -275 -60 -324 -20 -64 -19
-76 4 -76 14 0 20 9 24 38 2 20 12 69 20 107 9 39 21 108 26 155 17 130 31
207 57 302 13 48 24 98 24 111 0 14 14 51 30 82 17 32 37 92 46 134 9 42 23
94 31 116 8 22 21 63 30 90 8 28 23 73 33 100 10 28 25 88 34 135 15 81 24
119 48 220 6 25 14 80 17 122 3 42 12 83 19 90 24 24 11 -108 -28 -272 -12
-52 -30 -138 -40 -190 -18 -93 -46 -184 -81 -265 -10 -22 -27 -80 -39 -130
-12 -49 -35 -117 -51 -152 -16 -34 -29 -68 -29 -75 0 -7 -11 -57 -24 -113 -37
-152 -65 -302 -71 -381 -3 -39 -12 -95 -20 -125 -21 -79 -20 -99 8 -99 20 0
24 7 35 63 6 34 18 91 26 127 9 36 15 85 16 109 0 62 37 275 60 346 10 33 22
78 26 100 4 22 15 56 25 76 10 19 28 67 40 105 12 38 32 89 44 114 12 25 28
63 34 85 7 22 21 63 31 90 11 28 26 105 35 171 8 67 24 155 35 195 11 41 20
92 20 114 0 48 14 76 24 50 3 -9 -8 -84 -24 -166 -17 -83 -33 -185 -37 -227
-6 -77 -49 -216 -94 -304 -23 -44 -72 -174 -96 -253 -8 -27 -24 -79 -34 -114
-28 -90 -57 -248 -69 -371 -5 -58 -16 -129 -24 -157 -8 -29 -17 -75 -21 -103
-7 -49 -6 -50 19 -50 25 0 26 2 26 58 0 31 9 98 19 147 10 50 22 117 26 150
32 288 91 497 219 780 63 139 73 174 101 375 10 68 36 174 46 185 12 12 11
-41 -1 -85 -5 -19 -21 -101 -34 -182 -22 -134 -30 -159 -91 -294 -111 -248
-167 -445 -215 -754 -6 -41 -17 -106 -25 -145 -7 -38 -16 -107 -20 -153 l-7
-82 25 0 c31 0 37 15 37 96 0 111 20 252 65 459 81 371 146 576 219 695 23 38
39 81 50 135 21 113 54 246 62 254 25 23 -46 -326 -74 -367 -75 -105 -138
-306 -237 -753 -44 -201 -64 -344 -65 -461 0 -54 1 -58 24 -58 25 0 26 5 42
260 3 47 14 119 24 160 11 41 38 154 60 250 79 343 162 607 206 659 16 19 32
65 50 140 25 109 44 149 44 94 0 -52 -36 -172 -63 -210 -44 -64 -149 -396
-201 -638 -15 -66 -40 -176 -56 -245 -36 -154 -49 -246 -53 -372 l-3 -98 28 0
c27 0 28 2 28 48 2 163 20 317 54 457 20 83 47 200 61 260 35 158 69 278 111
391 20 55 57 165 83 246 47 150 61 181 61 137 0 -31 -46 -166 -93 -276 -63
-146 -106 -317 -220 -878 -15 -73 -27 -172 -30 -253 -6 -133 -5 -133 16 -130
19 3 23 11 29 68 4 36 10 128 13 206 4 115 10 154 30 212 14 39 54 205 90 369
35 164 74 323 85 353 11 30 18 42 14 25 -3 -16 -28 -142 -55 -280 -27 -137
-54 -275 -60 -305 -6 -30 -26 -93 -44 -140 -32 -81 -34 -94 -40 -250 -3 -91
-9 -186 -14 -212 -7 -45 -7 -48 14 -48 21 0 26 14 65 178 27 109 46 215 50
277 6 89 13 114 58 225 50 123 62 164 117 405 49 210 76 319 80 324 17 16 15
-23 -5 -116 -50 -238 -112 -469 -155 -580 -48 -120 -65 -184 -85 -313 -7 -41
-25 -133 -40 -205 -45 -207 -43 -195 -26 -195 9 0 19 14 25 38 15 61 67 294
111 492 22 102 58 233 80 293 41 111 75 229 110 377 32 134 40 160 52 160 22
0 -19 -167 -118 -475 -46 -146 -90 -326 -185 -760 -11 -50 -22 -98 -25 -107
-4 -14 0 -18 20 -18 15 0 27 7 30 18 7 23 106 476 150 682 19 91 51 219 71
285 20 66 52 174 72 239 34 117 60 182 69 173 4 -4 -29 -128 -76 -282 -33
-107 -59 -208 -90 -345 -127 -571 -170 -763 -170 -766 0 -2 11 -4 24 -4 22 0
25 7 46 108 12 59 40 186 62 282 21 96 52 236 69 310 86 390 166 691 210 789
32 73 32 39 0 -66 -63 -207 -162 -616 -256 -1058 -30 -143 -60 -276 -65 -296
-15 -54 -13 -69 10 -69 22 0 18 -14 89 305 195 889 315 1345 352 1345 4 0 -1
-24 -11 -53 -33 -93 -176 -680 -275 -1129 -52 -238 -97 -441 -99 -450 -3 -12
2 -18 15 -18 10 0 19 2 19 4 0 21 165 711 301 1261 83 333 109 425 140 487 26
50 43 58 25 11 -36 -96 -122 -429 -221 -848 -8 -33 -57 -235 -109 -450 -114
-471 -113 -465 -92 -465 9 0 18 12 22 27 14 64 36 153 105 413 75 286 98 381
128 515 76 336 216 836 257 917 31 62 94 161 99 156 2 -2 -18 -46 -44 -98 -50
-97 -110 -280 -156 -475 -22 -95 -88 -359 -116 -465 -5 -19 -25 -100 -44 -180
-19 -80 -58 -230 -85 -335 -136 -509 -128 -475 -106 -475 8 0 17 14 21 32 4
18 32 119 62 223 79 273 151 551 233 890 125 522 159 632 253 814 72 141 144
258 174 282 13 11 12 7 -4 -16 -42 -61 -202 -383 -238 -479 -20 -54 -45 -135
-56 -180 -10 -45 -23 -97 -29 -116 -5 -19 -19 -78 -30 -130 -68 -304 -144
-602 -245 -960 -103 -366 -102 -360 -78 -360 16 0 24 19 47 123 16 67 52 205
81 307 114 393 167 601 219 861 38 189 64 283 101 363 13 28 35 80 50 116 27
65 135 276 207 404 37 65 38 70 22 87 -27 30 -11 31 24 1 34 -29 40 -42 19
-42 -15 0 -59 -73 -159 -270 -139 -271 -186 -406 -253 -727 -24 -120 -75 -326
-111 -458 -115 -416 -133 -487 -164 -623 -17 -73 -30 -135 -30 -137 0 -3 9 -5
20 -5 12 0 22 9 25 23 3 12 19 87 36 167 39 191 69 311 139 565 31 116 79 302
104 413 73 312 159 535 331 852 77 143 105 186 105 164 0 -4 -17 -39 -39 -78
-225 -412 -272 -541 -426 -1171 -26 -104 -62 -244 -80 -310 -38 -138 -84 -337
-119 -507 l-23 -118 23 0 c13 0 24 3 24 8 0 20 76 379 115 542 85 352 193 756
244 910 38 114 84 219 172 395 66 132 127 249 134 259 41 55 12 -15 -104 -249
-71 -142 -141 -297 -156 -344 -15 -47 -36 -113 -46 -146 -10 -33 -52 -193 -93
-355 -41 -162 -82 -322 -91 -355 -30 -114 -145 -639 -145 -663 0 -2 10 -2 22
0 20 3 26 24 78 263 62 285 124 533 291 1175 17 63 38 133 48 155 21 47 220
415 251 464 21 33 21 34 2 55 -11 11 -30 41 -42 66 -23 44 -58 97 -92 134 -22
24 -17 31 11 17 26 -14 74 -85 92 -135 8 -21 32 -58 55 -82 22 -24 38 -45 35
-46 -3 0 -13 -1 -21 -2 -8 -1 -32 -35 -54 -76 -21 -41 -73 -136 -117 -210 -43
-74 -85 -155 -94 -179 -13 -39 -56 -203 -190 -726 -55 -217 -195 -837 -195
-867 0 -5 9 -8 20 -8 11 0 20 2 20 4 0 40 195 848 275 1141 19 72 51 198 70
280 20 83 43 173 52 200 15 47 80 164 127 229 12 16 41 65 66 109 25 44 51 83
59 85 17 6 -27 -73 -129 -230 -82 -125 -73 -100 -155 -423 -19 -77 -67 -264
-105 -415 -39 -151 -80 -315 -91 -365 -11 -49 -29 -128 -39 -175 -37 -164 -68
-306 -83 -372 -14 -68 -14 -68 8 -68 19 0 23 8 33 63 22 122 111 506 182 777
39 151 106 412 149 580 43 168 89 328 102 355 26 53 128 215 136 215 5 0 7 4
-49 -90 -24 -41 -52 -95 -62 -120 -10 -25 -65 -229 -122 -455 -57 -225 -117
-459 -133 -520 -26 -96 -181 -781 -181 -799 0 -3 10 -6 23 -6 25 0 15 -38 116
470 56 277 68 326 176 710 36 129 88 318 115 420 44 166 127 400 151 425 5 5
9 13 9 18 0 5 -10 -1 -21 -14 l-21 -24 15 25 c8 14 17 23 20 20 3 -3 15 4 28
15 l23 20 -20 -30 c-41 -62 -100 -231 -150 -429 -31 -126 -163 -601 -199 -716
-27 -89 -44 -167 -59 -265 -15 -96 -47 -259 -100 -510 -31 -142 -31 -135 -7
-135 13 0 20 9 24 28 3 15 19 97 36 182 18 85 41 218 52 295 34 238 96 479
229 890 27 83 65 209 85 280 50 178 89 301 114 359 16 37 19 52 10 62 -9 11
-7 14 9 14 29 0 35 -15 18 -42 -14 -22 -38 -100 -106 -333 -41 -144 -75 -255
-153 -510 -122 -397 -159 -547 -192 -791 -9 -66 -30 -184 -46 -264 -33 -167
-33 -170 -16 -170 10 0 18 25 25 77 74 491 95 578 300 1218 49 154 115 375
147 490 70 255 84 295 102 295 10 0 11 -5 4 -18 -5 -10 -19 -56 -31 -102 -20
-80 -135 -464 -251 -840 -28 -91 -57 -187 -64 -215 -85 -314 -116 -442 -135
-556 -60 -376 -58 -349 -30 -349 11 0 20 4 20 10 0 5 9 78 20 162 27 216 139
643 304 1160 76 239 133 428 181 603 15 55 34 107 41 115 19 20 18 3 -5 -73
-11 -34 -42 -143 -70 -242 -28 -99 -69 -236 -91 -305 -72 -222 -139 -442 -170
-565 -112 -433 -139 -552 -154 -675 -9 -74 -19 -147 -22 -163 -5 -23 -2 -27
19 -27 27 0 29 8 42 170 16 188 123 594 320 1215 84 265 108 344 149 505 40
156 43 143 -59 214 -55 37 -65 40 -117 38 l-57 -2 -45 56 c-25 31 -46 60 -46
65 0 31 -47 103 -82 126 -22 13 -38 27 -35 29 3 3 24 -6 47 -21 31 -20 48 -41
70 -88 16 -34 48 -83 72 -109 42 -47 44 -48 83 -38 53 12 101 -11 190 -92 60
-55 65 -63 47 -69 -15 -6 -23 -23 -32 -66 -18 -89 -85 -324 -165 -578 -105
-332 -171 -560 -215 -744 -23 -94 40 59 78 189 76 261 140 457 243 741 29 80
57 189 78 308 11 58 26 110 35 119 23 24 28 10 11 -31 -8 -20 -15 -48 -15 -61
0 -46 -77 -329 -124 -455 -25 -69 -44 -126 -43 -128 9 -8 111 259 127 329 5
26 18 68 29 95 10 26 24 75 31 108 14 70 33 110 55 118 19 8 19 2 0 -26 -8
-12 -22 -51 -31 -87 -9 -36 -24 -81 -34 -100 -9 -19 -20 -48 -24 -65 -4 -16
20 23 53 88 32 65 68 129 80 141 12 12 21 28 21 35 0 14 43 5 48 -11 2 -4 10
-15 18 -23 13 -13 5 -33 -69 -162 -47 -82 -99 -176 -116 -210 -54 -109 -112
-335 -191 -744 -64 -334 -71 -365 -121 -529 -47 -156 -65 -237 -56 -247 13
-13 24 12 72 157 60 183 67 199 59 135 -3 -27 -21 -103 -40 -167 -19 -65 -34
-120 -34 -123 0 -14 39 -3 44 13 39 136 58 243 53 304 -19 229 151 892 263
1028 l21 25 -16 -40 c-47 -115 -61 -152 -106 -284 -84 -247 -128 -467 -148
-741 -6 -80 -17 -170 -25 -200 -28 -112 -28 -110 -7 -110 15 0 23 10 30 38 21
77 40 222 46 352 6 130 41 369 69 474 28 109 121 337 186 461 60 113 99 219
87 231 -9 10 -57 -40 -57 -59 0 -21 -39 -111 -46 -105 -9 10 21 98 45 133 16
22 61 94 100 159 l71 120 -26 40 c-36 55 -74 91 -123 115 -21 11 -68 53 -103
92 -35 39 -85 86 -113 105 -27 20 -70 51 -94 70 -41 33 -49 35 -89 29 -42 -6
-47 -4 -84 32 -40 38 -74 91 -64 100 2 3 11 -8 20 -24 23 -45 94 -106 114 -98
36 15 48 15 79 -2 52 -30 151 -113 237 -200 49 -49 102 -92 134 -107 54 -27
112 -93 112 -127 0 -10 18 -32 40 -50 l39 -32 -23 -31 c-33 -43 -58 -95 -52
-105 3 -5 -20 -55 -51 -112 -106 -195 -151 -307 -228 -569 -61 -209 -63 -220
-85 -380 -27 -196 -64 -395 -89 -483 -12 -42 -16 -67 -9 -65 6 2 20 44 30 94
49 234 78 377 93 464 19 107 66 287 135 510 37 122 121 305 191 417 74 117
127 188 136 179 2 -2 -38 -70 -88 -152 -104 -168 -146 -264 -224 -509 -73
-231 -109 -370 -145 -565 -17 -91 -42 -220 -56 -286 -29 -147 -29 -154 -4
-154 22 0 24 5 40 130 23 173 71 446 91 519 31 115 138 446 171 531 43 112 66
158 108 220 20 30 67 103 103 161 92 150 128 180 176 150 16 -10 1 -38 -104
-201 -71 -109 -109 -181 -161 -306 -20 -49 -47 -114 -61 -144 -14 -30 -31 -71
-39 -90 -7 -19 -27 -69 -44 -110 -40 -94 -62 -203 -94 -451 -27 -207 -51 -345
-66 -382 -8 -20 -9 -21 -9 -2 -1 28 45 435 59 519 24 153 45 221 135 451 105
264 168 400 218 466 34 45 147 225 147 234 0 3 -9 5 -20 5 -14 0 -30 -15 -48
-45 -15 -25 -62 -100 -105 -166 -43 -67 -87 -140 -99 -162 -45 -89 -207 -561
-242 -707 -23 -97 -96 -551 -96 -599 0 -18 6 -21 45 -21 l45 0 0 61 c0 40 6
72 19 97 11 20 24 53 29 72 9 31 10 32 11 9 1 -15 -6 -42 -14 -62 -8 -19 -16
-67 -18 -106 -3 -61 -1 -71 14 -71 17 0 29 59 29 151 0 109 75 339 111 339 19
0 44 44 34 59 -8 14 64 157 140 276 18 28 52 82 77 120 25 39 58 90 73 115 15
25 45 65 66 90 110 129 187 215 276 307 111 115 113 124 27 143 -69 15 -104
33 -144 76 -49 52 -118 94 -154 94 -34 0 -130 41 -160 68 -10 9 -26 33 -36 53
-31 60 -71 95 -130 112 -30 9 -71 30 -90 46 -43 37 -36 40 11 6 19 -14 59 -33
89 -42 61 -18 100 -52 143 -126 30 -53 55 -68 170 -98 81 -22 123 -46 169 -97
35 -38 82 -63 155 -82 37 -9 45 -17 72 -67 33 -61 38 -83 19 -83 -20 0 -265
-258 -324 -341 -45 -65 -53 -82 -48 -107 4 -19 0 -41 -10 -59 -8 -15 -22 -62
-30 -103 -7 -41 -21 -104 -29 -140 -9 -36 -21 -112 -27 -170 -6 -58 -15 -130
-21 -160 -6 -30 -17 -100 -24 -155 -19 -130 -33 -181 -47 -167 -13 13 5 194
27 277 7 28 18 96 25 153 6 57 20 135 30 175 10 40 23 107 29 150 6 43 17 90
25 105 7 15 17 38 21 52 7 23 6 24 -10 10 -50 -42 -115 -283 -139 -517 -8 -78
-20 -151 -26 -162 -6 -11 -15 -65 -20 -120 -10 -103 -38 -196 -48 -156 -6 24
17 230 29 263 5 13 13 64 19 115 16 144 71 409 96 459 8 15 14 34 14 43 0 20
73 147 112 195 15 19 28 39 28 45 0 6 74 86 164 179 122 126 162 173 159 187
-3 10 -9 19 -13 19 -5 0 -34 -30 -66 -67 -32 -38 -102 -113 -155 -168 -53 -55
-109 -120 -125 -144 -51 -77 -106 -165 -125 -199 -11 -18 -28 -45 -38 -60 -68
-96 -90 -142 -85 -172 5 -20 0 -40 -14 -64 -37 -63 -60 -159 -72 -302 -6 -76
-16 -152 -22 -169 -17 -53 -26 -185 -11 -185 15 0 30 54 38 135 4 33 13 87 21
120 7 33 19 103 25 155 22 201 27 230 46 267 11 21 28 64 37 96 20 68 41 78
31 15 -4 -24 -14 -56 -23 -73 -20 -40 -51 -184 -58 -270 -11 -150 -14 -177
-24 -195 -5 -10 -15 -58 -20 -107 -6 -48 -13 -100 -16 -115 l-6 -28 60 0 c48
0 63 4 71 17 10 17 10 17 11 0 0 -15 3 -16 22 -6 16 9 23 9 26 0 5 -15 52 -14
52 1 0 7 12 29 26 49 22 32 27 54 34 141 10 122 18 182 31 223 5 17 18 98 29
180 10 83 28 184 39 225 21 82 42 200 57 319 4 32 9 40 17 32 19 -19 18 -48
-7 -169 -45 -217 -54 -267 -66 -362 -6 -52 -27 -189 -47 -305 -20 -116 -38
-226 -41 -245 -2 -19 -13 -47 -23 -62 -25 -34 -24 -38 6 -38 21 0 29 8 44 43
20 46 23 62 51 247 10 69 26 170 34 226 9 56 20 145 26 199 6 53 20 125 30
159 27 85 44 196 45 292 1 81 2 82 40 123 22 22 46 43 55 46 8 3 33 28 55 55
39 48 65 63 65 38 0 -14 -64 -82 -133 -141 l-44 -38 -6 -96 c-4 -52 -18 -143
-31 -201 -14 -59 -32 -168 -41 -242 -23 -193 -44 -327 -60 -390 -8 -30 -17
-93 -20 -140 -5 -62 -13 -98 -31 -132 l-25 -48 29 0 c41 0 64 52 67 155 2 44
10 107 18 140 18 72 30 146 63 405 13 107 33 222 44 255 17 53 36 189 39 284
1 19 4 37 6 40 26 25 23 -153 -4 -254 -10 -38 -22 -92 -25 -120 -29 -252 -61
-466 -82 -541 -23 -87 -33 -205 -16 -203 23 4 20 -8 -17 -76 -23 -41 -41 -77
-41 -80 0 -3 12 -5 28 -5 24 0 32 9 60 64 17 34 32 69 32 77 0 8 11 32 24 55
12 22 25 65 28 95 4 30 16 81 28 114 13 38 33 156 55 326 19 146 44 313 55
370 21 98 22 166 5 224 -3 11 1 29 10 40 9 11 14 15 12 10 -3 -6 1 -35 9 -64
12 -49 12 -67 -6 -175 -22 -137 -46 -324 -61 -471 -5 -55 -21 -137 -35 -183
-14 -45 -28 -113 -31 -150 -7 -70 -38 -148 -109 -269 l-36 -63 30 0 c20 0 33
7 41 23 l12 22 -5 -23 c-3 -18 0 -22 20 -22 17 0 29 10 44 39 27 55 42 61 25
10 -19 -52 -19 -49 10 -49 14 0 25 5 25 12 0 16 62 149 67 144 4 -4 -21 -108
-33 -141 -5 -11 0 -15 18 -15 22 0 27 9 51 89 15 48 33 94 42 101 20 16 19 10
-10 -89 -30 -103 -30 -101 -2 -101 20 0 25 12 55 118 18 64 40 126 48 136 20
28 18 13 -16 -119 -35 -138 -35 -135 -11 -135 21 0 34 34 65 171 18 74 44 144
52 136 3 -3 -10 -71 -30 -151 -20 -80 -36 -147 -36 -151 0 -3 10 -5 23 -5 21
0 25 10 51 123 38 166 44 190 56 207 15 23 13 1 -11 -103 -11 -50 -25 -114
-30 -142 -5 -27 -12 -58 -15 -67 -4 -14 0 -18 19 -18 22 0 26 6 36 58 36 194
92 417 75 297 -10 -67 -64 -337 -70 -346 -3 -5 18 -9 45 -9 34 0 51 4 51 13 0
9 2 9 8 -1 6 -9 37 -12 118 -10 l109 3 8 135 c17 285 -8 527 -77 753 -37 123
-51 157 -64 157 -4 0 -14 27 -21 60 -11 49 -19 64 -42 77 -16 10 -29 21 -29
25 0 20 -82 136 -105 148 -14 8 -23 20 -21 27 3 7 1 15 -4 18 -6 4 -10 1 -10
-6 0 -7 -12 -1 -27 13 -27 25 -63 33 -73 17 -3 -5 -18 8 -34 28 -28 35 -28 35
-5 28 20 -6 22 -5 12 6 -21 21 -15 34 7 14 11 -10 17 -21 15 -25 -2 -4 4 -15
14 -24 17 -16 18 -16 17 1 0 10 -30 48 -66 84 -77 78 -176 169 -167 153 6 -10
-110 43 -123 56 -3 3 -17 11 -32 19 -15 8 -25 18 -22 23 3 4 -4 8 -15 8 -11 0
-23 5 -27 12 -5 7 -2 8 7 3 8 -4 5 1 -6 12 -11 11 -26 18 -34 15 -9 -4 -12 -1
-7 7 6 9 0 10 -21 5 -33 -8 -42 -14 -21 -14 8 0 39 -18 69 -41 30 -22 89 -58
131 -80 43 -21 82 -49 89 -61 l12 -23 -24 21 c-13 12 -53 36 -88 53 -35 17
-90 51 -123 76 -33 25 -63 45 -66 46 -4 0 -22 2 -41 4 -22 2 -46 16 -75 43
-22 22 -54 44 -69 48 -16 3 -49 24 -74 46 -31 26 -52 38 -65 34 -13 -3 -36 8
-63 28 -23 18 -63 38 -89 45 -55 14 -61 26 -8 17 26 -4 31 -3 16 3 -22 10
-179 9 -189 -1 -10 -9 96 -98 124 -103 59 -12 96 -41 129 -103 26 -49 44 -68
90 -96 32 -19 78 -38 103 -42 58 -9 93 -27 148 -79 25 -23 61 -50 79 -59 33
-17 40 -30 21 -42 -6 -3 -16 -18 -23 -33 -19 -43 -117 -191 -127 -191 -15 0
49 128 90 180 45 57 48 65 27 73 -15 6 -34 -16 -143 -161 -36 -48 -83 -105
-103 -127 -45 -48 -86 -127 -129 -250 -47 -133 -65 -142 -36 -17 18 76 49 139
112 227 27 37 55 77 63 88 8 12 57 75 108 139 51 65 91 122 87 128 -3 5 -35
31 -71 56 -49 35 -77 48 -112 52 -32 3 -67 18 -110 46 -52 33 -69 52 -93 99
-30 59 -68 91 -121 102 -16 4 -47 26 -71 50 -23 23 -59 54 -79 68 -33 22 -35
25 -18 30 11 3 23 1 26 -4 3 -5 10 -9 16 -9 6 0 4 8 -5 18 -30 33 -18 34 20 3
20 -17 39 -28 42 -25 9 9 -63 64 -76 59 -7 -2 -47 29 -88 70 -41 40 -75 71
-75 69 0 -3 -10 2 -22 10 -12 9 -30 16 -40 16 -10 0 -37 19 -60 42 -41 41 -46
43 -103 43 -62 0 -85 8 -85 28 0 8 3 8 12 -1 7 -7 38 -12 72 -12 55 1 59 2 42
15 -11 8 -37 14 -62 13 -24 -1 -49 3 -55 9 -8 8 2 9 38 6 36 -3 44 -2 33 6 -8
6 -22 11 -31 11 -9 0 -24 9 -35 21 -26 29 -100 78 -128 85 -22 5 -32 29 -52
124 -11 49 -14 56 -23 41 -6 -8 -9 1 -9 25 0 22 -8 53 -16 69 -9 17 -16 36
-16 43 0 7 -4 20 -9 30 -14 26 -77 219 -91 280 -12 54 -38 82 -74 82 -18 0
-19 6 -12 117 4 65 15 167 26 228 10 60 21 146 25 190 4 44 15 114 25 155 33
131 49 204 56 255 8 64 12 70 32 52 25 -22 101 -40 142 -33 43 7 90 29 112 53
29 32 62 63 101 96 l38 32 -45 0 c-43 0 -45 -1 -51 -35 -8 -43 -21 -60 -46
-60 -10 0 -23 -9 -29 -20 -6 -11 -17 -20 -25 -20 -8 0 -15 -4 -15 -8 0 -4 -26
-9 -59 -10 -62 -3 -79 9 -93 65 -7 26 12 73 28 73 7 0 15 24 18 53 7 51 41
107 66 107 6 0 10 27 10 66 0 63 1 67 40 105 22 22 40 48 40 57 0 10 4 22 10
28 6 6 6 20 -2 41 -11 30 -10 33 33 73 55 52 93 72 127 68 l27 -3 0 -190 c0
-176 -2 -194 -23 -240 -13 -27 -17 -43 -9 -35 32 34 57 127 70 261 17 168 35
215 85 213 31 -2 32 -1 32 38 0 35 2 39 15 28 8 -7 15 -22 16 -34 0 -11 3 -15
6 -9 6 17 -15 79 -33 94 -12 10 -13 9 -7 -7 4 -13 -8 -6 -35 19 -23 20 -49 37
-57 37 -19 0 -88 -36 -180 -94 -42 -27 -74 -40 -80 -35 -17 17 -22 9 -21 -32
0 -29 -5 -45 -18 -55 -27 -19 -36 -9 -25 29 13 45 11 57 -6 57 -24 0 -28 25
-11 59 19 36 88 86 133 95 28 7 34 14 52 69 11 34 22 80 25 102 3 22 9 52 15
66 5 14 12 68 15 120 2 52 9 123 15 159 10 70 10 405 -1 415 -4 4 -4 12 -2 19
3 7 0 24 -5 39 -9 23 -7 28 10 38 19 9 19 12 6 27 -8 9 -18 35 -21 57 -4 21
-13 46 -22 56 -8 9 -12 24 -8 33 3 9 -1 27 -10 41 -9 13 -16 33 -16 44 0 11
-4 22 -9 26 -6 3 -10 13 -10 23 0 32 -25 122 -33 122 -4 0 -8 7 -8 16 0 8 -4
13 -9 9 -5 -3 -12 4 -16 15 -4 12 -24 32 -46 46 -21 13 -39 28 -39 33 0 6 -9
12 -20 16 -15 5 -18 12 -13 36 5 24 0 33 -27 57 -18 15 -57 51 -85 80 -29 28
-57 52 -63 52 -13 0 -62 58 -62 74 0 38 -98 103 -115 76 -3 -6 5 -10 19 -10
26 0 76 -39 76 -59 0 -17 -15 -13 -35 9 -10 11 -23 20 -30 20 -7 0 -24 11 -38
24 -14 13 -28 21 -31 18 -3 -3 -6 0 -6 6 0 7 -9 12 -19 12 -11 0 -22 4 -25 9
-3 4 -23 11 -43 14 -21 4 -49 14 -63 24 -14 10 -29 18 -35 18 -5 0 -35 12 -65
25 -30 14 -58 24 -63 22 -4 -1 -6 3 -5 9 2 7 -10 13 -27 14 -39 2 -124 25
-130 35 -8 13 -187 97 -231 109 -23 6 -47 18 -53 25 -7 8 -27 14 -44 14 -18
-1 -26 -3 -19 -5 6 -3 12 -8 12 -11 0 -8 -59 -8 -80 1 -16 6 -128 15 -133 11z
m-197 -84 c0 -5 -4 -10 -10 -10 -5 0 -10 5 -10 10 0 6 5 10 10 10 6 0 10 -4
10 -10z m1700 -705 c0 -8 -2 -15 -4 -15 -2 0 -6 7 -10 15 -3 8 -1 15 4 15 6 0
10 -7 10 -15z m-876 -47 c14 -6 33 -22 42 -35 8 -14 18 -22 21 -19 7 6 101
-41 121 -60 16 -17 105 -63 142 -75 18 -5 20 -8 6 -8 -11 -1 -16 -6 -13 -15 4
-9 -1 -17 -11 -19 -9 -3 -1 -5 18 -6 l35 -1 -25 -20 c-23 -19 -24 -21 -7 -31
9 -5 17 -19 17 -30 0 -11 7 -27 15 -35 9 -9 15 -33 14 -57 0 -35 -2 -38 -9
-19 -5 12 -12 22 -15 22 -10 0 -1 -64 10 -73 11 -10 -30 -4 -58 8 -14 6 -20 2
-24 -14 -3 -14 -11 -20 -20 -17 -14 6 -13 -32 3 -119 8 -43 35 -77 53 -66 12
8 12 13 3 24 -10 11 -9 17 3 27 8 7 15 20 15 28 0 12 -3 13 -11 5 -13 -13 -39
-6 -39 9 0 9 14 8 74 -4 36 -8 45 -68 10 -68 -8 0 -14 -6 -14 -14 0 -8 -5 -16
-11 -18 -9 -3 -9 -9 0 -25 6 -12 10 -34 10 -50 -1 -17 -3 -21 -6 -10 -5 18
-28 23 -38 8 -3 -5 -1 -12 5 -16 18 -11 11 -25 -12 -25 -17 0 -19 -3 -10 -12
19 -19 15 -66 -5 -64 -10 0 -20 -9 -24 -24 -4 -14 -7 -18 -8 -9 -1 18 -41 58
-41 42 0 -6 6 -16 14 -23 19 -15 9 -40 -15 -40 -10 0 -19 -6 -19 -14 0 -14
-22 -11 -104 15 -20 6 -32 5 -37 -2 -4 -6 -16 -8 -28 -4 -13 4 -21 2 -21 -5 0
-8 -7 -9 -17 -5 -16 6 -53 7 -163 4 -14 0 -61 1 -105 2 -63 3 -87 0 -115 -15
-62 -33 -69 -36 -75 -26 -7 12 -64 -8 -90 -32 -11 -10 -29 -45 -41 -76 -14
-40 -25 -56 -36 -54 -17 3 -22 -12 -33 -90 -6 -41 -5 -49 11 -55 11 -4 31 -15
45 -26 21 -15 31 -17 48 -8 21 12 71 5 71 -9 0 -4 -7 -13 -15 -20 -8 -7 -13
-15 -10 -19 2 -4 53 -6 112 -4 272 9 260 10 283 -15 15 -16 28 -20 45 -16 36
9 115 -30 115 -56 0 -17 7 -20 39 -20 54 0 95 16 87 35 -5 13 2 18 24 17 3 0
20 -3 38 -7 20 -4 32 -3 32 4 0 6 -7 11 -16 11 -10 0 -14 7 -12 23 3 19 9 22
53 22 46 0 50 -2 53 -25 8 -72 2 -103 -31 -153 -19 -29 -37 -60 -40 -71 -5
-12 -14 -17 -27 -13 -23 6 -26 -11 -7 -37 12 -16 16 -17 38 -5 13 8 26 16 29
19 3 3 15 11 27 18 22 12 23 11 19 -20 -3 -18 -5 -36 -5 -40 -1 -4 -14 -6 -31
-4 -16 2 -30 -1 -30 -5 0 -5 5 -9 10 -9 6 0 10 -8 9 -17 0 -11 -3 -13 -6 -5
-2 6 -9 12 -15 12 -12 0 -2 -49 19 -92 15 -29 15 -32 -2 -44 -20 -15 -12 -34
16 -34 10 0 19 -6 19 -14 0 -29 -13 -76 -21 -76 -5 0 -6 7 -3 15 4 8 1 15 -5
15 -7 0 -22 12 -35 27 l-23 26 -16 -42 c-9 -23 -17 -52 -17 -66 0 -13 -5 -27
-10 -30 -21 -13 -63 -89 -51 -93 21 -7 11 -23 -11 -18 -13 3 -17 3 -10 0 17
-8 15 -24 -3 -24 -8 0 -17 -12 -21 -27 -11 -53 -15 -63 -25 -63 -5 0 -9 4 -9
8 0 4 -13 16 -30 25 -34 20 -35 19 -18 -20 6 -15 12 -34 12 -42 1 -8 7 -16 14
-19 9 -2 12 3 10 14 -2 11 4 20 15 22 16 3 25 -23 17 -53 -2 -5 -11 -44 -21
-85 -9 -41 -18 -65 -18 -53 -1 20 -4 21 -26 11 -28 -13 -33 -29 -24 -83 5 -27
3 -45 -7 -59 -8 -11 -14 -30 -14 -43 0 -27 -28 -56 -47 -48 -11 4 -13 1 -9
-10 3 -9 2 -13 -4 -10 -6 3 -10 19 -10 35 0 22 -4 28 -15 24 -8 -4 -15 -17
-15 -30 0 -13 -4 -24 -9 -24 -14 0 -18 31 -8 68 10 40 2 53 -17 27 -12 -17
-16 -18 -32 -5 -13 12 -18 12 -21 3 -3 -7 -11 -13 -19 -13 -8 0 -14 -7 -14
-15 0 -8 5 -15 11 -15 6 0 8 -8 4 -19 -3 -11 -1 -22 5 -26 5 -3 10 1 10 10 0
21 24 14 28 -8 2 -10 -3 -17 -12 -17 -19 0 -20 -5 -6 -30 13 -24 -19 -49 -55
-42 -27 5 -33 17 -12 25 8 3 6 11 -9 28 -12 13 -24 32 -27 42 -10 26 -23 20
-34 -15 -8 -29 -6 -36 14 -58 13 -13 23 -34 23 -46 0 -11 3 -24 8 -28 11 -12
9 -30 -6 -45 -8 -8 -11 -24 -8 -37 7 -26 -3 -31 -22 -12 -17 17 -28 0 -14 -23
11 -17 9 -24 -15 -54 -21 -26 -29 -31 -35 -20 -7 11 -13 11 -38 -2 -17 -8 -28
-19 -25 -24 4 -5 1 -9 -4 -9 -6 0 -11 -13 -11 -30 0 -20 -5 -30 -15 -30 -16 0
-21 26 -6 32 5 2 -6 11 -25 20 -19 10 -34 13 -34 8 0 -6 5 -10 10 -10 6 0 10
-5 10 -11 0 -6 -7 -8 -16 -5 -12 4 -15 2 -10 -9 7 -18 -3 -45 -16 -45 -5 0 -7
13 -3 30 7 30 6 30 -19 19 -30 -14 -32 -24 -11 -45 17 -17 20 -44 5 -44 -5 0
-12 11 -16 25 -3 13 -12 29 -20 36 -11 9 -14 7 -14 -11 0 -14 -5 -20 -12 -16
-7 3 -21 9 -30 12 -11 4 -18 17 -19 33 l-1 26 -13 -30 c-8 -19 -10 -36 -4 -47
5 -9 9 -25 9 -35 -1 -17 -1 -17 -11 0 -13 21 -51 24 -43 2 4 -8 1 -15 -5 -15
-6 0 -11 6 -11 13 0 8 -4 7 -10 -3 -9 -13 -11 -13 -20 0 -6 10 -10 11 -10 3 0
-7 -5 -13 -11 -13 -5 0 -8 4 -4 9 3 5 1 12 -5 16 -5 3 -10 -3 -10 -14 0 -11
-4 -23 -10 -26 -5 -3 -10 -2 -10 4 0 7 -8 7 -26 1 -19 -7 -31 -7 -40 1 -10 8
-14 8 -14 0 0 -22 -18 -11 -24 15 -4 15 -2 32 5 41 10 11 10 16 0 23 -9 5 -10
9 -2 14 6 4 9 12 5 17 -4 6 -13 4 -24 -6 -15 -13 -23 -14 -39 -5 -24 12 -41 6
-41 -16 0 -8 -5 -14 -10 -14 -9 0 -8 23 3 72 1 5 -8 14 -20 19 -16 6 -23 5
-23 -4 0 -7 -5 -4 -11 6 -6 9 -15 14 -22 10 -28 -17 -92 -4 -95 20 -1 4 -9 18
-17 31 -15 22 -15 27 0 57 16 30 16 33 0 41 -13 8 -14 13 -4 24 9 11 8 14 -5
14 -9 0 -19 7 -22 15 -6 14 -8 13 -21 -2 -13 -17 -14 -16 -8 7 15 62 17 88 6
94 -17 11 -13 26 7 26 16 1 16 1 0 14 -10 7 -18 23 -18 36 0 18 -4 22 -25 18
-29 -6 -35 15 -7 31 10 6 12 11 4 11 -7 0 -12 6 -11 13 5 39 -2 67 -17 67 -11
0 -14 5 -10 16 3 9 6 20 6 25 0 14 70 0 101 -20 14 -9 42 -27 62 -39 21 -13
37 -30 37 -38 0 -18 8 -18 26 0 8 8 14 28 14 44 0 22 6 31 22 35 12 4 28 1 35
-5 9 -7 17 -7 28 2 9 8 29 10 50 7 20 -3 46 0 62 8 22 11 37 12 68 3 51 -13
71 -13 121 3 35 10 45 10 74 -5 23 -11 37 -13 44 -6 14 14 72 13 96 -2 15 -10
22 -10 31 -1 9 9 19 8 42 -3 25 -13 28 -20 23 -45 -4 -22 -2 -29 9 -29 27 0
132 47 180 80 50 34 76 36 85 5 6 -24 55 -101 70 -110 14 -8 13 31 -2 58 -10
19 -9 20 4 9 14 -11 18 -6 32 40 23 79 26 167 6 181 -9 7 -25 24 -34 40 -19
29 -42 37 -32 12 3 -8 1 -15 -4 -15 -6 0 -10 9 -10 20 0 11 -8 23 -17 26 -10
3 -29 11 -43 18 -14 8 -31 11 -37 9 -7 -3 -13 0 -13 6 0 6 -5 11 -11 11 -6 0
-8 -8 -4 -19 3 -11 1 -22 -5 -26 -5 -3 -10 2 -10 12 0 32 -16 48 -33 35 -12
-10 -18 -10 -30 3 -19 19 -27 19 -27 1 0 -24 -35 -12 -75 26 -38 36 -39 37
-28 82 6 26 11 89 12 140 2 76 -1 95 -13 99 -11 5 -16 0 -16 -14 0 -37 -29
-79 -54 -79 -26 0 -133 -33 -168 -51 -13 -7 -40 -26 -60 -42 -34 -27 -43 -29
-110 -28 -68 1 -77 4 -131 41 -33 23 -70 40 -86 40 -15 0 -32 5 -39 12 -16 16
-21 9 -23 -42 -3 -72 -17 -118 -39 -125 -11 -4 -20 -10 -20 -15 0 -4 -17 -7
-37 -5 -21 1 -48 -4 -61 -12 -13 -8 -31 -13 -40 -12 -34 3 -43 -1 -52 -26 -6
-15 -17 -25 -29 -25 -10 0 -24 -7 -31 -15 -15 -18 -36 -19 -44 -2 -3 6 -4 -4
-1 -23 26 -182 34 -230 45 -249 6 -13 9 -29 6 -37 -3 -8 1 -14 9 -14 19 0 20
-58 1 -83 -12 -16 -15 -14 -38 21 -14 20 -28 48 -32 60 -6 16 -13 21 -26 17
-22 -7 -33 7 -24 29 5 13 10 14 23 5 9 -7 1 2 -16 20 -18 18 -33 40 -34 49 0
11 -3 12 -6 4 -2 -6 -9 -10 -13 -7 -5 3 -1 18 7 34 15 25 15 35 3 87 -8 33
-14 62 -14 66 -1 3 -4 10 -8 14 -4 4 4 13 19 21 25 13 38 11 38 -8 0 -5 3 -9
8 -9 4 0 12 0 17 0 6 0 10 9 10 20 0 11 -3 19 -7 19 -25 -4 -43 3 -43 16 0 8
-8 15 -18 15 -18 0 -54 34 -45 43 2 3 -1 16 -8 29 -7 12 -12 28 -11 35 4 21
-19 26 -25 5 -2 -11 -16 -22 -29 -25 -24 -4 -33 6 -14 18 6 4 5 13 -3 25 -11
19 -12 19 -21 -3 -9 -21 -10 -21 -14 8 -2 16 -12 35 -23 43 -10 7 -19 18 -19
24 0 7 6 6 15 -2 8 -7 15 -9 15 -5 0 4 -8 13 -17 20 -25 18 -29 237 -9 433 9
84 16 161 16 173 0 11 5 17 10 14 6 -3 10 -17 10 -31 0 -14 4 -23 9 -20 15 9
134 -15 145 -29 28 -37 83 -35 112 3 5 8 35 20 65 26 47 11 56 11 66 -3 15
-21 27 -8 15 16 -10 17 -5 18 76 15 53 -2 89 -8 94 -15 6 -9 8 -8 8 2 0 10 9
12 38 6 20 -4 56 -9 80 -11 35 -4 42 -1 42 14 0 10 -7 27 -15 39 -14 20 -13
20 29 16 26 -3 46 -1 50 6 4 6 16 11 27 11 11 0 19 7 19 18 0 26 -24 89 -42
109 -9 10 -26 43 -39 73 -29 69 -95 142 -109 120 -8 -12 -11 -12 -28 3 -10 9
-21 15 -23 12 -3 -2 -20 9 -38 25 -33 30 -47 38 -36 20 10 -16 -212 -10 -259
6 -56 20 -77 18 -140 -15 -31 -17 -56 -27 -56 -23 -1 4 -7 -6 -14 -23 -8 -16
-23 -40 -35 -52 -11 -12 -21 -28 -21 -35 0 -9 3 -9 11 2 9 13 10 12 5 -2 -3
-10 -8 -40 -12 -68 -4 -28 -11 -53 -17 -57 -6 -4 -8 0 -5 9 4 8 2 21 -2 29 -5
7 -5 16 -1 19 5 3 11 38 14 78 3 41 8 76 11 79 3 4 6 -1 6 -10 0 -15 3 -15 20
-5 10 7 16 15 11 18 -15 10 -19 49 -5 67 19 25 17 53 -3 54 -17 1 -17 2 0 6
17 5 24 33 8 33 -12 0 -35 69 -27 77 3 4 6 -1 6 -10 0 -9 6 -19 13 -23 6 -4 9
-4 5 1 -4 4 -4 13 1 19 5 6 11 29 13 51 2 31 0 39 -12 38 -11 -2 -15 6 -13 30
2 48 2 49 11 43 5 -3 16 15 26 39 29 69 78 104 114 82 6 -5 16 -6 21 -3 5 4
20 2 34 -3 20 -8 29 -5 47 14 14 15 20 30 16 43 -11 32 4 51 48 63 90 25 166
56 280 112 65 33 130 59 145 59 14 0 35 8 46 19 40 36 113 60 183 61 37 0 72
4 77 8 12 10 65 18 175 30 80 8 133 19 171 35 10 3 20 2 23 -3 8 -13 53 -3 67
14 14 17 39 19 39 3 0 -8 4 -8 13 -1 8 7 26 8 49 3 20 -5 42 -5 49 0 8 5 23 6
33 3 15 -5 18 -3 13 10 -5 12 0 16 23 16 16 0 40 -5 54 -12z m401 -468 c-3 -5
-10 -10 -16 -10 -5 0 -9 5 -9 10 0 6 7 10 16 10 8 0 12 -4 9 -10z m-2541 -29
c-10 -17 -22 -27 -27 -24 -6 3 -3 11 6 18 10 7 17 17 17 24 0 6 5 11 11 11 5
0 2 -13 -7 -29z m-40 -56 c-4 -8 -8 -15 -10 -15 -2 0 -4 7 -4 15 0 8 4 15 10
15 5 0 7 -7 4 -15z m51 -110 c2 -14 -1 -23 -6 -19 -5 3 -9 17 -9 31 0 32 12
23 15 -12z m372 -57 c-3 -8 -6 -5 -6 6 -1 11 2 17 5 13 3 -3 4 -12 1 -19z
m353 -228 c0 -5 -2 -10 -4 -10 -3 0 -8 5 -11 10 -3 6 -1 10 4 10 6 0 11 -4 11
-10z m75 -190 c71 -11 125 -35 133 -58 3 -9 -22 -12 -100 -12 -66 0 -138 -7
-195 -19 -93 -20 -126 -33 -153 -62 -8 -8 -23 -18 -33 -22 -15 -6 -14 0 7 40
14 25 23 50 21 54 -3 4 2 10 11 13 8 3 13 10 9 15 -3 5 5 11 17 13 13 2 28 15
35 29 13 26 15 26 95 24 46 -2 115 -8 153 -15z m1333 -8 c2 -6 -5 -12 -15 -13
-10 0 -2 -5 17 -12 19 -7 35 -19 35 -27 0 -8 8 -21 18 -28 9 -7 14 -18 11 -24
-5 -7 -1 -9 9 -5 11 4 17 1 17 -7 0 -12 -8 -12 -47 1 -99 30 -295 48 -395 35
-38 -5 -68 -8 -68 -7 0 1 19 15 43 32 42 31 86 47 162 59 22 3 42 8 44 10 11
11 165 -2 169 -14z m-1808 -132 c0 -33 -3 -60 -7 -60 -5 0 -6 27 -5 60 5 77
12 77 12 0z m552 44 c16 -10 8 -26 -9 -19 -10 5 -46 7 -80 6 -69 -2 -88 15
-25 22 38 4 101 -1 114 -9z m1790 -16 c-7 -7 -12 -8 -12 -2 0 14 12 26 19 19
2 -3 -1 -11 -7 -17z m-1986 -14 c-11 -7 -22 -11 -25 -8 -3 3 3 12 13 20 11 7
22 11 25 8 3 -3 -3 -12 -13 -20z m1214 8 c0 -4 -9 -8 -20 -9 -22 -2 -27 13 -7
20 14 5 27 -1 27 -11z m103 -1 c4 -4 -12 -7 -35 -6 -25 1 -43 6 -46 14 -4 11
4 12 34 7 22 -4 42 -11 47 -15z m-1596 -81 c-2 -34 -49 -36 -61 -3 -4 11 -2
13 9 10 8 -4 17 -2 20 3 11 18 34 10 32 -10z m1433 -10 c0 -20 -15 -25 -44
-14 -15 6 -15 8 1 20 26 19 43 17 43 -6z m560 16 c0 -3 -4 -8 -10 -11 -5 -3
-10 -1 -10 4 0 6 5 11 10 11 6 0 10 -2 10 -4z m-1430 -16 c0 -5 -4 -10 -10
-10 -5 0 -10 5 -10 10 0 6 5 10 10 10 6 0 10 -4 10 -10z m1509 -464 c-10 -27
-16 -33 -26 -24 -17 14 -16 29 3 57 24 34 39 12 23 -33z m439 -142 c3 -19 -33
-62 -43 -53 -2 3 0 22 6 43 11 39 32 44 37 10z m-2608 -141 c-1 -21 -13 -52
-20 -48 -10 6 0 55 11 55 5 0 9 -3 9 -7z m2128 -49 c-7 -15 -14 -21 -16 -15
-5 16 5 41 17 41 7 0 6 -10 -1 -26z m-1997 -67 c-1 -4 6 -21 15 -38 12 -24 12
-30 2 -26 -7 2 -12 9 -11 15 1 5 -4 16 -12 22 -17 14 -20 43 -4 38 6 -2 10 -7
10 -11z m803 -136 c46 -7 75 -7 88 0 10 5 24 7 30 3 6 -4 17 1 24 11 12 16 14
16 29 1 11 -10 25 -14 41 -10 16 4 26 1 30 -9 5 -15 88 -44 112 -39 6 2 12 -2
12 -8 0 -12 -20 -14 -116 -10 -39 1 -107 -5 -151 -14 -64 -13 -90 -15 -129 -6
-27 6 -96 13 -154 15 -58 3 -104 7 -102 10 1 3 2 9 2 14 0 5 16 12 35 15 19 4
46 13 61 21 15 8 31 12 36 9 4 -3 8 0 8 6 0 18 43 29 60 15 8 -7 46 -18 84
-24z m-314 -47 c0 -8 -4 -12 -10 -9 -5 3 -10 10 -10 16 0 5 5 9 10 9 6 0 10
-7 10 -16z m-170 -298 c0 -3 -4 -8 -10 -11 -5 -3 -10 -1 -10 4 0 6 5 11 10 11
6 0 10 -2 10 -4z m590 -566 c0 -4 -9 -10 -20 -13 -22 -6 -23 -5 -14 17 6 14
34 12 34 -4z m1299 -332 c-58 -125 -140 -221 -499 -583 -398 -400 -604 -612
-608 -626 -5 -13 -32 -11 -32 3 0 15 206 226 489 503 516 502 549 539 638 712
21 39 39 70 41 68 2 -2 -11 -37 -29 -77z m-319 -38 c0 -12 -40 -33 -47 -26 -9
8 28 47 38 40 5 -3 9 -9 9 -14z m370 0 c0 -16 -103 -162 -192 -271 -47 -57
-150 -167 -229 -245 -79 -77 -190 -189 -247 -250 -158 -167 -455 -464 -464
-464 -14 0 -9 19 10 39 94 99 683 688 736 735 94 83 265 283 329 383 54 86 57
89 57 73z m-429 -80 c5 0 12 7 15 15 10 25 24 17 24 -14 0 -16 -6 -32 -12 -34
-8 -3 -7 -6 4 -6 10 -1 18 8 21 22 3 20 4 20 12 4 5 -13 1 -24 -14 -38 -30
-28 -26 -33 9 -12 17 9 30 20 30 24 0 4 7 10 16 13 21 8 -72 -90 -221 -233
-288 -277 -715 -714 -715 -731 0 -5 -7 -7 -15 -4 -8 4 -15 11 -15 17 0 14 386
406 606 615 81 78 103 103 70 80 -27 -18 -69 -44 -95 -58 -29 -15 -152 -130
-334 -312 -159 -159 -293 -286 -298 -282 -13 7 15 37 226 249 155 154 271 263
342 322 10 8 12 12 6 8 -20 -10 -4 26 25 58 14 15 31 27 38 27 6 0 24 18 39
40 15 22 31 40 35 40 4 0 11 11 14 24 3 13 21 33 38 45 18 11 32 21 30 23 -1
2 2 17 8 35 8 23 16 30 28 26 11 -5 14 -2 9 10 -3 8 1 21 9 27 11 10 14 10 14
0 0 -10 3 -10 15 0 8 6 14 15 13 18 -2 20 5 24 9 5 2 -13 9 -23 14 -23z m443
-12 c-9 -18 -38 -60 -63 -93 -26 -33 -68 -91 -95 -130 -27 -38 -133 -155 -236
-260 -104 -104 -257 -262 -341 -350 -333 -348 -352 -366 -363 -355 -7 7 40 60
147 167 86 87 219 223 295 303 77 80 146 151 153 158 175 165 292 291 383 412
59 79 113 153 118 166 6 13 13 22 15 20 3 -2 -3 -19 -13 -38z m-319 -112 c-43
-47 -108 -112 -144 -145 -78 -69 -377 -367 -613 -608 -148 -153 -178 -178
-178 -152 0 19 999 1003 1009 994 2 -2 -32 -42 -74 -89z m355 64 c-6 -11 -13
-20 -16 -20 -2 0 0 9 6 20 6 11 13 20 16 20 2 0 0 -9 -6 -20z m-1968 -19 c-4
-18 28 -72 38 -66 6 4 14 -5 20 -19 5 -14 13 -26 17 -26 14 0 32 -49 19 -53
-7 -2 0 -19 17 -43 15 -22 27 -47 27 -56 0 -8 7 -21 15 -28 8 -7 15 -21 15
-31 0 -23 58 -78 81 -79 9 0 22 -7 29 -15 10 -12 9 -15 -5 -15 -10 0 -27 7
-37 17 -10 9 -21 13 -25 9 -7 -7 12 -30 28 -32 5 -1 12 -3 17 -4 4 -2 22 -3
39 -4 27 -1 32 2 27 16 -5 16 1 17 48 13 29 -3 61 -8 71 -11 9 -3 17 -1 17 5
0 7 31 10 89 8 68 -3 93 -8 106 -21 10 -10 22 -13 29 -9 6 5 22 8 36 7 107 -7
193 -1 197 14 3 6 13 12 23 12 10 0 22 5 25 10 3 6 14 10 23 10 10 0 0 -11
-23 -25 -41 -25 -268 -235 -365 -338 -44 -47 -51 -60 -40 -67 17 -11 9 -13
-14 -4 -17 6 -44 46 -29 42 4 -1 51 40 103 92 85 84 89 90 40 54 -30 -21 -65
-48 -76 -59 -81 -76 -98 -89 -102 -77 -5 17 -22 15 -22 -2 0 -8 -14 -17 -32
-21 -18 -4 -42 -9 -53 -11 -20 -5 -20 -5 -1 10 11 9 27 16 35 16 9 0 26 11 38
23 l22 23 -30 18 c-25 15 -29 15 -29 2 0 -9 5 -16 10 -16 6 0 10 -4 10 -10 0
-5 -7 -10 -16 -10 -9 0 -28 -8 -42 -18 -15 -10 -36 -22 -46 -26 -16 -5 -17 -4
-7 8 10 11 10 18 1 28 -17 19 -53 88 -125 235 -44 89 -81 151 -115 188 -27 30
-50 53 -50 50 0 -12 178 -371 213 -431 40 -67 55 -114 38 -114 -6 0 -11 4 -11
9 0 5 -16 38 -36 73 -55 97 -229 443 -267 534 -19 44 -38 96 -42 115 -4 18
-12 40 -17 47 -7 8 -7 12 1 12 6 0 14 -7 18 -16 8 -22 23 2 23 38 0 17 6 28
18 31 24 6 37 2 34 -12z m1999 -39 c-11 -21 -37 -61 -57 -88 -21 -27 -57 -80
-81 -119 -50 -80 -220 -274 -307 -349 -32 -28 -86 -85 -118 -126 -33 -41 -146
-164 -251 -274 -106 -109 -194 -205 -195 -213 -2 -8 1 -20 7 -26 7 -7 74 56
221 206 116 119 233 242 259 274 26 32 115 127 199 211 101 103 167 179 199
230 26 43 73 112 105 155 32 43 58 86 58 95 0 8 3 13 6 9 12 -12 -16 -70 -66
-131 -27 -35 -68 -94 -91 -132 -47 -78 -139 -183 -280 -324 -53 -52 -122 -129
-155 -170 -32 -41 -139 -158 -236 -259 -98 -101 -178 -190 -178 -196 0 -11
-13 -18 -45 -24 -5 0 -10 7 -11 17 -1 23 -23 63 -24 44 0 -28 -23 -5 -26 27
-4 29 -2 33 16 28 15 -4 67 45 244 227 123 127 239 249 258 271 19 22 106 112
194 200 142 143 170 177 264 321 58 89 106 160 108 159 2 -2 -6 -21 -17 -43z
m-84 -19 c-19 -27 -63 -91 -97 -143 -45 -68 -109 -140 -224 -255 -88 -88 -181
-185 -206 -215 -52 -61 -50 -59 -245 -261 -77 -79 -163 -169 -192 -201 -39
-42 -55 -53 -62 -44 -8 9 55 80 238 267 136 140 266 274 288 299 21 25 104
108 182 185 78 77 159 163 179 190 97 136 164 225 169 225 3 0 -11 -21 -30
-47z m-2027 -12 c0 -70 41 -188 107 -311 95 -178 243 -474 243 -487 0 -25 -16
-13 -35 25 -10 20 -46 98 -80 173 -34 75 -87 179 -118 230 -93 157 -130 252
-135 342 -3 52 -1 77 7 77 7 0 11 -20 11 -49z m2112 -194 c-39 -50 -80 -112
-92 -137 -13 -25 -48 -70 -78 -100 -30 -30 -66 -71 -81 -90 -14 -19 -64 -73
-111 -120 -47 -47 -114 -121 -149 -165 -34 -44 -144 -165 -244 -269 -100 -104
-185 -193 -189 -200 -5 -8 -10 -8 -19 1 -9 9 34 59 193 220 112 114 235 246
273 293 38 47 108 124 155 171 145 146 221 232 243 274 11 22 45 73 76 114 31
40 63 84 71 97 8 13 17 19 18 14 2 -6 -28 -52 -66 -103z m87 11 c-7 -13 -33
-50 -59 -83 -26 -33 -58 -80 -70 -105 -13 -25 -51 -74 -85 -110 -34 -36 -72
-81 -85 -100 -14 -19 -56 -67 -95 -106 -38 -39 -97 -104 -130 -145 -128 -159
-466 -513 -476 -498 -7 12 37 62 278 309 72 74 152 162 177 196 25 33 87 104
138 157 177 183 243 260 273 316 26 48 132 191 142 191 2 0 -2 -10 -8 -22z
m-2271 -159 c18 -31 32 -65 32 -75 0 -24 -55 83 -80 158 -11 32 -20 65 -19 75
0 10 8 -9 18 -42 9 -33 31 -86 49 -116z m31 29 c16 -29 32 -64 35 -78 5 -18 1
-15 -12 10 -10 19 -26 49 -35 65 -23 41 -57 124 -56 138 0 7 9 -9 19 -35 11
-26 32 -71 49 -100z m-112 55 c-3 -10 -5 -2 -5 17 0 19 2 27 5 18 2 -10 2 -26
0 -35z m2372 -5 c-6 -12 -26 -41 -44 -63 -18 -22 -45 -64 -61 -94 -16 -29 -54
-81 -84 -115 -30 -33 -73 -83 -95 -111 -22 -27 -50 -61 -63 -75 -13 -14 -60
-67 -105 -119 -279 -321 -504 -558 -517 -545 -6 6 62 84 192 219 110 116 219
234 240 263 22 30 83 99 137 155 53 56 110 120 126 142 16 22 53 64 82 93 30
29 64 76 77 105 13 28 44 76 70 105 25 30 46 59 46 64 0 6 3 9 6 6 3 -4 0 -17
-7 -30z m-2393 3 c-8 -13 31 -146 59 -201 13 -27 27 -68 30 -92 l5 -43 -10 38
c-5 20 -19 56 -31 78 -24 49 -59 154 -59 180 0 22 -24 25 -67 8 -25 -9 -26 -8
-13 5 8 8 31 19 50 24 19 6 36 11 38 11 2 1 1 -3 -2 -8z m2492 -21 c45 -28 40
-35 -8 -10 -38 19 -49 30 -32 30 4 0 22 -9 40 -20z m-2419 -98 c22 -50 41
-100 41 -110 0 -9 -21 30 -45 87 -25 57 -45 108 -45 114 0 17 5 8 49 -91z
m-90 26 c-1 -24 -4 -33 -6 -20 -5 26 -29 29 -56 5 -19 -17 -20 -17 -8 5 6 12
19 22 29 22 14 0 14 2 3 9 -11 7 -9 10 10 14 13 2 25 5 27 6 1 0 1 -18 1 -41z
m2536 2 c3 -5 -9 -3 -27 4 -18 8 -34 19 -36 26 -5 13 53 -14 63 -30z m-2595
26 c0 -3 -4 -8 -10 -11 -5 -3 -10 -1 -10 4 0 6 5 11 10 11 6 0 10 -2 10 -4z
m2558 -46 c6 0 16 -9 22 -19 15 -30 12 -38 -6 -13 -8 12 -19 20 -24 17 -10 -6
-50 33 -50 49 0 5 10 0 23 -12 13 -12 28 -22 35 -22z m-2518 -14 c0 -7 -9 -16
-20 -19 -24 -6 -25 -3 -4 17 19 20 24 20 24 2z m2493 -20 c10 -3 29 -31 43
-61 13 -31 45 -79 71 -106 45 -48 48 -49 89 -43 26 4 50 1 65 -7 38 -20 169
-121 169 -129 0 -5 27 -36 61 -69 33 -34 55 -61 48 -61 -7 0 -47 35 -88 78
-42 43 -105 100 -141 126 -63 46 -67 48 -116 42 -51 -6 -52 -5 -93 39 -23 25
-53 72 -68 106 -21 48 -33 63 -60 74 -18 8 -33 19 -33 25 0 7 6 7 18 1 9 -5
25 -12 35 -15z m-2590 -15 c-37 -31 -173 -74 -214 -68 -47 6 -108 -20 -173
-75 -39 -33 -45 -36 -31 -15 9 14 42 43 73 64 51 34 65 38 132 41 62 3 88 11
150 40 78 38 100 43 63 13z m161 -74 c22 -52 36 -102 35 -125 -1 -34 -2 -33
-9 13 -4 28 -22 79 -39 115 -17 36 -31 71 -31 79 0 22 5 13 44 -82z m-67 61
c-3 -8 -6 -5 -6 6 -1 11 2 17 5 13 3 -3 4 -12 1 -19z m2687 -10 c47 1 59 -3
98 -33 24 -19 55 -49 68 -67 13 -18 42 -52 63 -75 22 -24 36 -43 31 -44 -5 0
0 -5 11 -10 l20 -9 -20 3 c-11 2 -19 9 -17 16 2 9 -3 11 -13 7 -11 -4 -39 16
-89 63 -79 75 -104 88 -136 71 -17 -9 -27 -7 -52 7 -42 24 -71 65 -62 86 6 17
7 17 25 1 14 -13 35 -17 73 -16z m-2751 7 c-3 -9 -18 -22 -33 -30 -41 -21
-167 -56 -231 -64 -31 -3 -64 -12 -72 -20 -9 -7 -22 -11 -29 -8 -28 9 57 47
105 47 26 0 60 6 75 13 15 8 52 19 82 26 30 6 66 20 80 31 30 24 31 24 23 5z
m244 -27 c-3 -8 -6 -5 -6 6 -1 11 2 17 5 13 3 -3 4 -12 1 -19z m75 -98 c22
-52 71 -162 110 -243 39 -81 68 -151 64 -154 -8 -8 0 -22 -88 162 -90 186
-138 306 -137 338 0 14 2 17 6 7 3 -8 23 -58 45 -110z m2182 77 c23 -24 49
-65 59 -94 23 -65 90 -143 122 -143 13 0 27 -4 30 -10 11 -18 -64 -11 -83 8
-35 35 -69 87 -76 116 -9 36 -57 108 -91 134 -27 22 -32 32 -13 32 6 0 30 -19
52 -43z m-2371 -142 c4 -39 3 -54 -3 -45 -5 8 -10 35 -10 60 0 30 -9 59 -25
85 -14 22 -25 49 -25 60 0 42 57 -103 63 -160z m2817 94 c15 -28 5 -23 -15 7
-9 15 -12 23 -6 20 6 -4 16 -16 21 -27z m-2851 -84 c-1 -14 -5 -9 -16 15 -8
19 -22 43 -30 52 -8 9 -12 22 -7 29 9 15 53 -66 53 -96z m284 -220 c69 -135
87 -185 68 -185 -6 0 -11 7 -11 15 0 8 -35 88 -79 178 -85 175 -121 265 -121
300 1 12 18 -23 39 -78 21 -55 68 -158 104 -230z m-862 258 c-11 -21 -61 -70
-61 -59 0 6 62 75 68 76 1 0 -2 -8 -7 -17z m119 -63 c-26 -44 -62 -117 -78
-163 -45 -122 -80 -197 -117 -247 -18 -25 -40 -69 -50 -99 -10 -29 -34 -90
-55 -135 -71 -156 -147 -387 -171 -516 -17 -93 -28 -96 -13 -3 27 172 87 360
159 503 21 41 48 106 61 143 13 38 36 84 52 102 35 40 72 114 113 232 38 106
79 189 114 232 15 17 28 31 30 31 2 0 -19 -36 -45 -80z m3341 63 c13 -16 12
-17 -3 -4 -10 7 -18 15 -18 17 0 8 8 3 21 -13z m-2652 -266 c73 -148 111 -244
92 -233 -4 3 -16 24 -26 48 -10 24 -53 117 -97 208 -43 92 -81 184 -83 205 -5
39 -5 39 14 -13 11 -29 56 -126 100 -215z m2741 208 c30 -30 50 -55 44 -55 -6
0 -32 25 -58 55 -26 30 -46 55 -44 55 2 0 28 -25 58 -55z m-3495 28 c-4 -10
-11 -31 -14 -48 l-7 -30 -6 27 c-3 16 1 36 9 48 17 25 28 26 18 3z m16 -38
c-22 -57 -36 -72 -16 -16 15 43 24 61 30 61 2 0 -5 -20 -14 -45z m3494 -55
c-9 -14 141 -148 178 -160 47 -15 72 -40 104 -107 19 -41 36 -58 84 -88 32
-20 59 -40 59 -46 0 -14 -8 -11 -73 28 -50 31 -64 47 -83 89 -28 63 -60 97
-116 122 -46 20 -183 154 -183 178 0 8 -5 18 -10 22 -6 4 -21 21 -35 37 -13
17 -1 8 27 -19 29 -27 50 -52 48 -56z m-3575 65 c-13 -14 -28 -25 -34 -25 -6
0 3 11 19 25 39 31 45 32 15 0z m770 -225 c85 -177 125 -281 106 -274 -6 2
-19 30 -30 62 -10 31 -52 123 -92 204 -40 81 -75 164 -79 185 -5 34 -4 35 6
13 6 -14 46 -99 89 -190z m-175 150 c5 -25 4 -32 -4 -25 -6 6 -14 26 -17 45
-5 24 -3 32 4 25 5 -5 13 -26 17 -45z m-575 22 c0 -5 -9 -34 -19 -65 -23 -67
-81 -154 -155 -234 -29 -32 -62 -76 -74 -98 -11 -22 -30 -49 -42 -60 -53 -48
-104 -147 -121 -235 -8 -42 -8 -41 -5 17 5 75 33 135 99 210 26 30 56 71 66
91 11 21 34 51 51 67 42 39 145 184 165 231 8 20 15 47 15 60 0 13 5 24 10 24
6 0 10 -4 10 -8z m699 -191 c67 -132 136 -312 117 -305 -6 2 -26 45 -44 95
-19 50 -60 147 -93 215 -38 79 -59 136 -58 157 l1 32 7 -35 c4 -19 36 -91 70
-159z m-704 61 c-34 -107 -58 -154 -112 -213 -23 -26 -47 -66 -54 -90 -7 -24
-37 -87 -67 -140 -61 -110 -127 -293 -140 -389 -6 -42 -10 -53 -11 -30 -3 108
57 296 140 433 27 45 56 103 64 129 9 25 32 61 51 80 47 45 92 127 110 201 23
94 37 133 41 119 3 -7 -7 -52 -22 -100z m-45 94 c0 -18 -24 -60 -52 -92 -18
-20 -44 -56 -58 -80 -24 -40 -47 -68 -182 -220 -59 -67 -83 -120 -99 -218 -7
-43 -7 -39 -3 22 7 95 30 147 96 214 85 87 138 151 171 211 18 30 44 65 59 76
15 12 32 37 38 56 6 19 16 35 21 35 5 0 9 -2 9 -4z m3775 -16 c3 -5 38 -19 78
-31 62 -18 80 -29 127 -78 30 -31 67 -70 81 -87 18 -20 40 -34 65 -39 21 -3
50 -15 64 -24 35 -25 58 -32 65 -21 4 6 2 10 -3 10 -5 0 -26 13 -46 29 -20 16
-51 32 -68 35 -40 8 -53 18 -96 74 -45 56 -23 54 23 -3 26 -31 49 -48 75 -55
21 -6 57 -26 80 -45 29 -24 52 -35 74 -35 24 0 51 -14 102 -54 38 -29 103 -70
144 -89 69 -33 78 -41 115 -102 22 -36 55 -86 74 -111 19 -24 30 -48 26 -52
-4 -4 -10 -2 -12 5 -2 7 -18 29 -35 50 -16 21 -47 68 -69 105 -37 63 -42 67
-108 93 -42 17 -96 50 -141 86 -47 38 -81 59 -98 59 -24 0 -22 -2 19 -29 24
-15 59 -45 78 -64 23 -24 58 -45 107 -63 82 -29 89 -36 130 -114 15 -30 41
-70 56 -88 15 -18 28 -41 28 -52 0 -10 8 -32 17 -48 18 -32 15 -93 -27 -462
-10 -91 -22 -193 -25 -227 -3 -35 -14 -87 -25 -118 -10 -30 -24 -92 -30 -137
-13 -96 -44 -210 -67 -245 -25 -38 -27 -19 -5 54 11 37 23 92 26 121 4 30 18
89 32 133 13 43 29 118 33 166 14 131 49 405 67 519 22 133 10 209 -45 292
-17 26 -42 70 -55 97 -29 61 -38 70 -96 85 -66 18 -110 44 -159 94 -26 27 -62
52 -90 62 -25 9 -66 24 -91 34 -25 10 -57 21 -72 24 -15 4 -41 24 -60 47 -91
113 -108 128 -177 149 -61 18 -132 59 -104 60 6 0 15 -4 18 -10z m-4141 -12
c-4 -7 -17 -26 -30 -43 -25 -34 -35 -67 -59 -180 -28 -131 -62 -220 -168 -425
-55 -107 -103 -199 -107 -205 -20 -26 -156 -329 -221 -490 -84 -211 -97 -248
-114 -335 -10 -49 -13 -57 -14 -30 -2 82 35 204 109 365 23 50 62 142 87 205
49 125 101 232 240 500 111 213 148 301 178 434 26 115 44 161 74 194 24 24
36 29 25 10z m-95 -110 c-29 -115 -86 -238 -280 -608 -39 -74 -95 -193 -126
-265 -30 -71 -75 -173 -100 -225 -54 -114 -78 -172 -109 -265 -15 -45 -23 -60
-24 -44 0 46 40 160 105 294 35 72 84 180 110 240 26 61 99 214 163 340 215
429 222 443 242 525 26 104 31 120 39 120 5 0 -4 -51 -20 -112z m212 51 c-16
-24 -53 -64 -82 -88 -50 -43 -97 -121 -100 -166 -1 -17 -2 -16 -9 5 -8 25 -8
25 -9 -4 -1 -16 -4 -27 -7 -23 -4 3 -3 23 1 44 4 21 10 32 12 25 3 -7 16 9 29
37 14 31 55 83 106 134 46 46 84 83 86 82 2 -2 -11 -22 -27 -46z m899 37 c0
-8 21 -59 46 -113 25 -54 58 -132 74 -173 16 -41 38 -99 50 -128 12 -32 16
-52 9 -50 -10 3 -27 42 -92 208 -14 36 -44 109 -66 163 -45 107 -45 107 -31
107 6 0 10 -6 10 -14z m715 4 c-3 -5 -14 -10 -23 -10 -15 0 -15 2 -2 10 20 13
33 13 25 0z m-1521 -12 c-12 -5 -34 -33 -49 -60 -15 -27 -46 -66 -68 -86 -104
-94 -124 -124 -151 -227 -3 -11 -3 3 0 30 7 67 41 122 113 184 33 29 74 77 91
106 31 53 42 63 70 64 9 0 7 -4 -6 -11z m1416 -8 c-8 -5 -22 -10 -30 -10 -13
0 -13 1 0 10 8 5 22 10 30 10 13 0 13 -1 0 -10z m-1835 -32 c-4 -13 -15 -39
-24 -58 -10 -19 -87 -174 -173 -345 -85 -170 -167 -340 -181 -378 -69 -174
-83 -205 -115 -250 -19 -26 -45 -77 -59 -115 l-24 -67 6 50 c8 57 12 66 70
155 24 36 64 121 89 190 48 128 394 839 409 840 5 0 5 -10 2 -22z m1961 7 c3
-8 14 -17 25 -20 24 -8 35 -50 19 -70 -20 -24 -6 -27 18 -5 12 12 22 17 22 12
0 -13 -43 -49 -68 -57 -30 -9 -90 12 -102 36 -7 13 -7 19 0 19 5 0 10 14 10
30 0 49 61 94 76 55z m-736 -97 c0 -6 13 -38 28 -72 16 -33 40 -95 54 -136 15
-41 36 -98 47 -127 14 -36 17 -51 8 -47 -13 5 -87 183 -87 210 0 8 -9 33 -21
56 -22 43 -69 181 -69 201 0 14 40 -70 40 -85z m-1341 -15 c-67 -126 -56 -103
-147 -293 -97 -200 -112 -235 -145 -325 -43 -119 -58 -148 -108 -216 -27 -36
-55 -81 -63 -100 -14 -32 -15 -33 -16 -8 0 14 12 44 27 65 85 123 115 174 139
243 45 127 103 262 143 336 21 39 53 104 71 145 19 41 46 93 61 115 14 22 38
61 53 88 50 88 38 47 -15 -50z m673 15 c-17 -29 -50 -71 -73 -93 -23 -22 -52
-62 -64 -90 -12 -27 -45 -82 -72 -122 -52 -76 -93 -173 -118 -283 l-15 -65 5
57 c9 99 49 207 113 299 32 46 64 98 71 116 7 18 37 57 66 87 29 30 65 77 80
105 16 28 30 49 33 47 2 -3 -10 -29 -26 -58z m1302 35 c9 -9 -107 -52 -159
-59 -55 -7 -41 2 56 36 93 33 93 33 103 23z m-2176 -24 c-10 -5 -18 -18 -18
-28 0 -41 -201 -398 -262 -466 -26 -29 -59 -72 -74 -96 l-26 -44 6 34 c4 23
27 57 64 100 36 40 88 120 132 201 147 269 156 290 124 290 -8 0 -12 5 -9 10
3 6 23 10 43 10 30 -1 34 -3 20 -11z m48 -19 c-14 -17 -30 -50 -37 -73 -15
-57 -61 -156 -119 -252 -26 -44 -57 -99 -69 -122 -11 -23 -43 -69 -71 -102
-27 -33 -61 -77 -75 -97 -20 -29 -25 -33 -25 -16 0 11 28 54 63 96 34 41 82
110 105 153 23 43 67 121 97 173 31 52 65 125 76 163 11 37 30 76 41 87 33 31
43 24 14 -10z m1463 -42 c62 -195 117 -344 134 -366 5 -7 7 -16 3 -20 -13 -12
-55 81 -96 213 -29 91 -50 156 -65 198 -7 20 -9 37 -5 37 5 0 18 -28 29 -62z
m-1681 -134 c-71 -145 -93 -179 -150 -240 -43 -45 -70 -83 -74 -102 -8 -41
-22 -33 -16 8 3 21 27 56 74 106 57 61 80 97 129 202 70 149 111 221 116 206
2 -6 -34 -87 -79 -180z m-13 110 c-13 -27 -39 -83 -57 -124 -25 -58 -49 -93
-109 -155 -42 -44 -82 -91 -90 -105 -8 -15 -15 -79 -19 -160 -4 -98 -8 -127
-14 -106 -12 39 -1 249 14 277 7 12 50 62 95 109 71 76 87 100 120 180 36 84
72 146 81 137 2 -2 -7 -26 -21 -53z m2375 37 c0 -9 -105 -49 -162 -61 -54 -11
-47 5 10 24 26 9 65 23 87 31 47 16 65 18 65 6z m-2571 -42 c-7 -13 -22 -32
-35 -42 -13 -10 -37 -40 -55 -67 -18 -28 -34 -48 -36 -46 -8 8 26 64 66 110
22 25 43 55 46 67 5 14 10 18 17 11 6 -6 6 -18 -3 -33z m2771 24 c-19 -8 -71
-24 -115 -34 -44 -11 -88 -24 -97 -29 -10 -6 -23 -10 -30 -10 -7 1 5 10 27 22
51 28 181 67 220 67 l30 -1 -35 -15z m2300 -26 c0 -2 -41 -71 -90 -153 -50
-82 -104 -184 -120 -226 -17 -43 -39 -92 -51 -110 l-20 -33 7 30 c17 73 53
152 148 317 55 97 107 177 114 178 6 0 12 -2 12 -3z m-5160 -41 c0 -3 -4 -8
-10 -11 -5 -3 -10 -1 -10 4 0 6 5 11 10 11 6 0 10 -2 10 -4z m2745 -26 c3 -5
1 -17 -4 -27 -10 -19 -31 -217 -31 -299 0 -40 -43 -238 -63 -294 -4 -8 -11
-35 -17 -59 -8 -29 -14 -40 -20 -32 -4 8 12 85 37 180 40 150 45 180 49 311 6
174 25 259 49 220z m-2771 -24 c-3 -9 -10 -16 -15 -16 -6 0 -5 9 1 21 13 24
24 20 14 -5z m2542 9 c-23 -17 -36 -19 -36 -6 0 5 8 12 18 14 32 9 37 6 18 -8z
m164 -11 c0 -14 -12 -19 -23 -8 -9 9 4 35 14 28 5 -3 9 -12 9 -20z m-1790 -91
c-15 -85 -65 -203 -148 -353 -73 -131 -85 -158 -189 -405 -136 -325 -199 -496
-223 -605 -12 -53 -19 -73 -19 -52 -2 88 70 305 214 642 13 30 45 105 70 165
26 61 83 177 127 258 92 170 142 287 160 369 17 80 23 64 8 -19z m4424 45
c-22 -43 -44 -68 -61 -68 -8 0 1 19 23 50 40 56 63 67 38 18z m-5373 -11 c-8
-8 -11 -7 -11 4 0 20 13 34 18 19 3 -7 -1 -17 -7 -23z m2594 23 c-3 -5 -11
-10 -16 -10 -6 0 -7 5 -4 10 3 6 11 10 16 10 6 0 7 -4 4 -10z m1198 -24 c-40
-53 -258 -296 -265 -296 -4 0 -12 9 -18 20 -8 15 -8 18 4 14 8 -3 33 16 62 48
78 84 227 238 232 238 2 0 -5 -11 -15 -24z m1647 15 c0 -5 -7 -12 -16 -15 -14
-5 -15 -4 -4 9 14 17 20 19 20 6z m-2883 -121 l-11 -95 -8 55 c-10 74 3 163
21 144 6 -5 5 -49 -2 -104z m-1580 78 c-3 -8 -6 -5 -6 6 -1 11 2 17 5 13 3 -3
4 -12 1 -19z m4604 -50 c-27 -40 -62 -101 -80 -135 -17 -34 -53 -99 -80 -145
-72 -123 -187 -354 -210 -424 -11 -34 -30 -122 -41 -195 -25 -170 -49 -281
-62 -294 -7 -7 -8 0 -4 20 3 17 11 83 16 149 12 137 33 247 61 320 50 126 326
642 393 733 53 72 59 47 7 -29z m-5611 41 c0 -9 -9 -28 -20 -42 -11 -14 -20
-33 -20 -42 0 -9 -15 -31 -32 -48 -18 -18 -41 -43 -50 -57 -15 -21 -18 -22
-18 -6 0 10 18 36 40 58 22 22 40 44 40 49 0 24 -56 -23 -127 -104 -94 -109
-110 -126 -156 -154 -25 -15 -34 -17 -30 -7 3 8 20 22 37 31 17 8 44 32 61 52
90 110 192 211 213 211 10 0 23 5 30 12 17 17 15 58 -2 58 -26 0 -103 -38
-127 -62 l-23 -23 15 25 c33 54 169 93 169 49z m5700 -27 c-130 -169 -295
-433 -345 -552 -13 -31 -39 -122 -58 -204 -19 -81 -39 -152 -44 -157 -18 -18
17 209 43 283 48 134 250 474 371 626 37 45 68 49 33 4z m-5740 10 c0 -4 -15
-14 -34 -20 -37 -14 -63 -39 -176 -169 -40 -46 -75 -83 -79 -83 -5 0 -20 -11
-35 -25 -19 -17 -26 -20 -26 -9 0 8 15 23 33 34 33 19 169 164 199 211 9 14
36 36 60 48 47 23 58 25 58 13z m52 -50 c-41 -79 -58 -263 -31 -354 5 -18 9
-49 9 -68 l0 -35 -14 26 c-7 14 -13 45 -13 68 0 47 -9 63 -23 41 -8 -12 -10
-11 -10 5 0 12 5 26 11 32 6 6 12 44 14 84 1 41 6 90 10 109 9 44 55 144 62
136 3 -3 -4 -23 -15 -44z m2363 31 c-3 -10 -23 -83 -43 -163 -43 -169 -56
-154 -17 18 32 138 41 162 56 162 7 0 8 -7 4 -17z m-1389 -95 c-21 -80 -53
-162 -84 -212 -48 -78 -164 -334 -209 -461 -24 -71 -62 -173 -83 -225 -71
-175 -131 -344 -150 -420 -15 -59 -19 -67 -19 -39 -1 55 29 156 113 374 43
110 99 259 126 330 60 162 108 267 187 415 69 129 96 197 114 279 7 31 14 48
16 39 3 -10 -3 -46 -11 -80z m5244 -11 c0 -16 -31 15 -61 62 l-30 46 45 -50
c25 -27 46 -54 46 -58z m-320 36 c-81 -93 -148 -163 -156 -163 -4 0 6 15 23
33 16 17 44 53 61 78 32 48 91 104 100 95 2 -3 -10 -22 -28 -43z m-6112 0
c-55 -60 -93 -105 -101 -118 -10 -18 -97 -77 -97 -65 0 4 15 18 34 29 19 12
51 43 72 69 54 68 96 112 108 112 5 0 -2 -12 -16 -27z m2494 -18 c-2 -19 -9
-35 -14 -35 -6 0 -7 7 -4 16 3 9 6 24 6 35 0 10 4 19 8 19 4 0 6 -16 4 -35z
m3895 -31 c-7 -7 -46 35 -47 51 0 5 12 -3 27 -17 15 -15 24 -30 20 -34z
m-6282 -69 c-14 -21 -25 -31 -25 -23 0 17 40 72 47 65 2 -3 -7 -22 -22 -42z
m6343 0 c-3 -3 -9 2 -12 12 -6 14 -5 15 5 6 7 -7 10 -15 7 -18z m-6417 -3 c-5
-9 -19 -26 -30 -36 -12 -11 -31 -35 -43 -54 -12 -19 -37 -41 -57 -49 -19 -8
-41 -22 -48 -32 -7 -9 -12 -11 -13 -6 0 18 14 32 50 50 19 10 42 27 50 39 18
26 91 106 97 106 2 0 -1 -8 -6 -18z m1226 -74 c-2 -18 -4 -6 -4 27 0 33 2 48
4 33 2 -15 2 -42 0 -60z m2339 10 c-18 -73 -72 -344 -87 -438 -17 -106 -64
-260 -102 -337 -36 -70 -37 -74 -36 -185 1 -107 -22 -243 -60 -363 -17 -55
-11 -6 11 88 16 69 22 129 24 242 2 150 2 150 36 215 37 70 68 187 118 445 50
255 93 416 107 401 3 -3 -2 -33 -11 -68z m2900 2 c1 -28 0 -34 -3 -15 -3 17
-12 38 -21 49 -16 17 -16 18 3 15 16 -3 20 -13 21 -49z m-54 -161 c-2 -96 -8
-210 -13 -254 -6 -44 -14 -123 -19 -175 -5 -52 -20 -138 -34 -190 -13 -52 -30
-140 -36 -195 -10 -89 -42 -196 -55 -183 -9 8 32 241 63 363 21 79 56 366 67
540 3 50 11 121 17 158 11 63 10 69 -10 97 -28 37 -28 46 1 27 22 -14 22 -18
19 -188z m-6413 153 c-14 -15 -38 -44 -53 -65 -15 -21 -40 -43 -54 -48 -15 -6
-35 -18 -44 -26 -17 -15 -18 -15 -18 1 0 10 17 24 44 36 25 10 50 28 56 40 17
31 82 101 88 95 3 -3 -6 -18 -19 -33z m87 -9 c-11 -21 -15 -23 -16 -10 0 24
22 65 27 50 2 -6 -3 -24 -11 -40z m5658 -74 c-51 -100 -73 -102 -29 -3 24 55
63 109 72 100 2 -2 -17 -46 -43 -97z m-5704 62 c0 -5 -7 -15 -17 -22 -9 -8
-34 -38 -55 -66 -23 -32 -46 -53 -58 -53 -10 0 -26 -10 -35 -22 l-16 -23 3 24
c2 18 12 27 33 33 20 5 46 29 80 73 47 61 65 76 65 56z m2407 -13 c-3 -8 -6
-5 -6 6 -1 11 2 17 5 13 3 -3 4 -12 1 -19z m4157 -13 c27 -41 19 -64 -9 -25
-14 19 -25 38 -25 42 0 16 18 7 34 -17z m-390 -11 c11 -28 6 -138 -9 -199 -8
-33 -30 -181 -49 -330 -22 -167 -45 -302 -61 -354 -14 -47 -25 -107 -25 -135
0 -66 -9 -96 -28 -96 -12 0 -14 10 -8 62 3 35 15 92 26 126 11 35 27 119 35
185 37 302 55 417 74 487 15 52 21 104 21 172 0 90 9 121 24 82z m371 -99 c4
-22 4 -37 0 -33 -11 11 -45 108 -45 128 1 25 38 -52 45 -95z m-6534 77 c-5
-10 -17 -24 -25 -31 -8 -7 -27 -33 -41 -57 -19 -33 -32 -44 -50 -44 -13 0 -28
-8 -34 -17 -5 -10 -13 -15 -17 -11 -10 11 16 38 36 38 18 0 42 26 93 99 29 41
57 58 38 23z m6418 -187 c1 -126 -16 -333 -34 -405 -24 -92 -35 -160 -45 -263
-8 -81 -33 -168 -45 -155 -8 9 21 215 43 303 14 55 29 138 33 185 4 47 13 117
18 155 6 39 11 140 12 225 2 173 16 137 18 -45z m-6725 130 c-72 -116 -76
-121 -69 -95 4 14 15 36 26 50 10 14 28 42 40 63 11 22 23 36 26 33 3 -3 -7
-26 -23 -51z m2914 -2 c-9 -61 -25 -109 -34 -100 -5 5 22 132 32 148 10 17 11
8 2 -48z m3873 -158 c-2 -167 -14 -295 -40 -418 -12 -55 -21 -126 -21 -159 0
-63 -17 -145 -31 -154 -19 -12 5 211 37 341 17 70 42 345 39 425 -1 30 -5 84
-9 120 l-6 65 16 -45 c13 -35 17 -75 15 -175z m149 170 c0 -5 -5 -3 -10 5 -5
8 -10 20 -10 25 0 6 5 3 10 -5 5 -8 10 -19 10 -25z m-6622 -23 c-14 -15 -38
-46 -52 -70 -15 -24 -35 -46 -44 -49 -9 -3 -25 -13 -36 -22 -17 -15 -18 -15
-15 3 4 19 18 30 51 40 9 3 26 22 37 43 22 45 69 98 78 89 4 -3 -5 -19 -19
-34z m-317 -52 c-22 -32 -45 -69 -50 -82 -6 -12 -10 -16 -10 -8 -1 14 12 37
74 137 11 18 22 28 24 22 1 -6 -15 -36 -38 -69z m6937 -55 c0 -19 -5 -7 -13
30 -17 75 -17 92 0 40 8 -22 13 -53 13 -70z m-6878 82 c0 -7 -18 -36 -39 -65
-22 -28 -47 -73 -56 -99 -10 -27 -22 -60 -27 -75 -6 -16 -17 -28 -25 -28 -10
0 -9 6 6 28 10 15 27 51 36 80 9 29 34 76 56 104 21 29 39 56 39 60 0 5 2 8 5
8 3 0 5 -6 5 -13z m283 -19 c-17 -18 -41 -52 -52 -76 -12 -24 -32 -47 -46 -52
-14 -5 -25 -14 -25 -20 0 -5 -5 -10 -10 -10 -17 0 7 38 28 44 10 4 29 25 42
49 26 47 69 97 84 97 5 0 -4 -15 -21 -32z m288 -142 c-14 -158 -80 -426 -104
-426 -10 0 -1 33 19 72 8 15 14 40 14 55 0 15 11 73 26 128 14 55 27 138 30
185 3 47 8 101 11 120 7 35 7 35 11 6 2 -15 -1 -78 -7 -140z m-551 120 c0 -7
-16 -35 -37 -61 -20 -26 -44 -64 -54 -84 -10 -20 -18 -29 -19 -21 0 15 32 73
80 143 28 41 30 43 30 23z m310 -2 c0 -4 -16 -22 -35 -41 -19 -18 -39 -51 -45
-73 -6 -22 -20 -45 -31 -50 -11 -6 -24 -21 -29 -33 -8 -21 -9 -20 -9 5 -1 18
6 31 20 39 11 6 30 32 41 57 26 60 88 127 88 96z m6451 -304 c-6 -52 -17 -138
-26 -190 -8 -52 -15 -127 -15 -166 0 -46 -5 -77 -15 -90 -13 -17 -14 -9 -10
78 3 54 13 135 21 180 25 130 33 205 33 309 1 53 4 118 9 145 12 81 15 -153 3
-266z m44 -130 c-8 -69 -15 -155 -15 -191 0 -36 -6 -73 -12 -82 -18 -24 -13
123 8 258 9 55 19 179 22 275 l7 175 3 -155 c2 -95 -3 -203 -13 -280z m-6824
325 c-28 -41 -55 -84 -60 -97 -9 -22 -10 -22 -10 -2 -1 12 17 48 40 80 22 33
48 71 57 86 9 15 19 23 21 17 2 -6 -20 -44 -48 -84z m1456 48 c-3 -10 -5 -2
-5 17 0 19 2 27 5 18 2 -10 2 -26 0 -35z m-1125 -22 c-27 -25 -44 -51 -52 -82
-6 -24 -20 -53 -30 -64 -10 -11 -23 -31 -29 -45 l-10 -25 0 26 c-1 15 12 43
28 63 16 20 33 51 36 69 7 32 87 121 94 104 2 -5 -15 -26 -37 -46z m5788 25
c0 -18 -6 -49 -14 -67 -7 -19 -17 -56 -20 -84 -4 -27 -16 -81 -26 -120 -11
-38 -28 -146 -39 -240 -11 -93 -23 -178 -26 -187 -4 -9 -15 -72 -26 -140 -11
-68 -23 -143 -27 -167 -4 -25 -13 -46 -21 -49 -11 -4 -12 2 -7 24 4 16 8 40 8
54 2 69 20 221 33 265 8 28 19 98 25 157 6 59 20 142 31 185 12 43 25 110 30
148 5 39 16 88 23 110 8 22 18 64 21 93 5 35 11 52 21 52 9 0 14 -11 14 -34z
m-268 -68 c-22 -35 -70 -113 -106 -175 -62 -104 -86 -137 -86 -116 0 4 16 35
36 67 19 32 46 81 60 109 31 60 124 190 132 183 2 -3 -13 -34 -36 -68z m-5779
45 c-3 -10 -24 -42 -45 -71 -22 -29 -48 -72 -59 -95 -10 -23 -19 -37 -19 -30
0 24 22 70 68 140 45 69 68 92 55 56z m6817 -129 c0 -151 -17 -430 -27 -449
-10 -17 -6 116 7 248 6 54 10 150 10 214 0 64 2 114 5 111 3 -3 5 -59 5 -124z
m-7035 50 c-11 -16 -22 -23 -32 -20 -9 4 -24 -1 -34 -10 -11 -10 -19 -13 -19
-8 0 17 23 34 47 34 16 0 27 9 35 26 7 15 14 21 16 15 2 -6 -4 -23 -13 -37z
m208 -29 c-21 -30 -49 -74 -62 -98 l-23 -42 6 34 c3 19 23 57 44 85 22 28 45
62 52 76 8 14 15 20 17 13 3 -7 -13 -37 -34 -68z m282 33 c-22 -24 -42 -45
-44 -48 -2 -3 0 6 4 20 7 27 49 70 68 70 6 0 -7 -19 -28 -42z m1122 -15 c-3
-10 -5 -4 -5 12 0 17 2 24 5 18 2 -7 2 -21 0 -30z m-857 -120 c-36 -199 -95
-431 -107 -419 -7 6 13 101 48 226 15 58 35 148 44 200 20 123 27 150 32 128
2 -9 -5 -70 -17 -135z m-532 23 c-30 -44 -60 -92 -66 -106 -10 -23 -10 -22 -6
10 3 19 24 60 45 90 22 30 47 70 57 89 13 25 18 29 20 16 2 -10 -21 -54 -50
-99z m6857 -154 c-4 -95 -9 -171 -12 -168 -3 2 -1 100 4 218 4 117 9 193 11
168 2 -25 1 -123 -3 -218z m-6568 200 c-20 -20 -37 -31 -37 -24 0 18 59 76 67
68 4 -4 -10 -23 -30 -44z m-460 16 c-3 -8 -6 -5 -6 6 -1 11 2 17 5 13 3 -3 4
-12 1 -19z m1580 -25 c-3 -10 -5 -4 -5 12 0 17 2 24 5 18 2 -7 2 -21 0 -30z
m-1669 7 c-14 -22 -24 -19 -15 5 4 8 11 15 17 15 6 0 6 -7 -2 -20z m323 -42
c-12 -24 -36 -64 -55 -90 -36 -50 -43 -81 -71 -335 -8 -72 -20 -144 -26 -160
-7 -15 -18 -50 -25 -78 l-12 -50 -1 43 c-1 23 8 69 19 102 12 35 27 126 36
217 8 87 19 167 24 178 4 11 13 34 18 52 6 18 28 56 50 85 21 29 42 62 46 72
3 10 9 16 12 13 3 -3 -4 -25 -15 -49z m-244 17 c-4 -8 -11 -15 -17 -15 -7 0
-7 6 0 21 13 23 26 19 17 -6z m-49 -21 c-7 -15 -14 -21 -16 -15 -5 16 5 41 17
41 7 0 6 -10 -1 -26z m82 5 c0 -12 -8 -23 -20 -26 -17 -5 -20 -14 -21 -67 l-1
-61 -9 50 c-10 60 -5 81 21 88 11 3 20 12 20 21 0 9 2 16 5 16 3 0 5 -9 5 -21z
m372 4 c-15 -37 -53 -103 -58 -103 -10 0 5 47 27 85 21 36 44 49 31 18z m127
10 c0 -5 -16 -21 -35 -36 -40 -34 -46 -18 -8 18 27 25 45 32 43 18z m-681 -55
c-11 -29 -33 -91 -49 -138 -15 -47 -28 -80 -28 -73 -2 30 82 263 94 263 3 0
-5 -24 -17 -52z m1729 30 c-3 -8 -6 -5 -6 6 -1 11 2 17 5 13 3 -3 4 -12 1 -19z
m-1697 -35 c-5 -16 -21 -59 -35 -97 -14 -38 -35 -102 -46 -144 -11 -41 -29
-88 -39 -103 -13 -18 -20 -44 -20 -76 0 -48 -37 -207 -39 -167 -1 11 6 43 14
70 8 27 15 71 15 98 0 31 8 64 24 95 13 25 38 94 55 153 31 105 66 198 75 198
3 0 1 -12 -4 -27z m400 -8 c-6 -15 -23 -44 -39 -64 -15 -20 -35 -49 -44 -66
-14 -25 -16 -27 -17 -9 0 12 14 41 31 65 17 24 40 59 51 77 24 38 33 37 18 -3z
m-235 -7 c-4 -13 -10 -61 -15 -108 l-7 -85 -1 88 c-1 55 3 95 10 107 17 26 22
25 13 -2z m366 -63 c-16 -33 -30 -51 -30 -41 -1 26 52 135 56 116 2 -8 -10
-42 -26 -75z m156 49 c3 -18 3 -18 -5 0 -7 17 -10 16 -34 -13 -28 -32 -38 -38
-38 -21 0 16 52 61 64 57 6 -2 12 -12 13 -23z m-690 -86 c-19 -51 -42 -120
-50 -154 -17 -64 -67 -169 -67 -139 0 10 9 33 21 52 11 18 27 61 35 96 16 71
84 251 91 243 3 -2 -11 -47 -30 -98z m200 70 c-3 -8 -6 -5 -6 6 -1 11 2 17 5
13 3 -3 4 -12 1 -19z m688 -10 c-3 -13 -26 -106 -50 -208 -51 -214 -102 -410
-109 -417 -14 -14 13 113 67 317 14 52 37 148 52 213 14 64 31 117 37 117 6 0
8 -9 3 -22z m-449 -16 c-4 -11 -20 -37 -37 -58 -16 -20 -32 -48 -35 -61 -6
-23 -24 -33 -24 -12 0 15 17 46 58 107 35 52 49 61 38 24z m-243 -172 c-13
-147 -21 -191 -50 -275 -28 -84 -33 -93 -30 -55 2 25 14 72 26 105 16 42 27
106 37 223 13 149 20 190 29 180 2 -2 -3 -82 -12 -178z m381 103 c-17 -40 -30
-61 -32 -51 -4 20 46 133 55 124 3 -3 -7 -36 -23 -73z m101 27 c-9 -16 -20
-30 -26 -30 -5 0 -2 14 8 30 9 17 21 30 25 30 5 0 2 -13 -7 -30z m-215 -43
c-11 -18 -28 -49 -38 -69 -9 -21 -22 -38 -29 -38 -14 0 -19 -24 -34 -170 -10
-97 -20 -153 -54 -300 l-13 -55 -1 42 c-1 23 8 80 19 126 11 47 25 132 30 189
15 159 21 188 36 188 8 0 18 8 22 18 15 37 67 110 75 105 4 -2 -1 -19 -13 -36z
m159 -49 c-10 -28 -23 -56 -29 -62 -15 -15 -13 21 4 52 8 15 17 35 20 45 3 9
10 17 15 17 5 0 1 -23 -10 -52z m-303 -20 c-3 -24 -11 -90 -17 -148 -10 -102
-28 -199 -49 -270 -5 -19 -10 -48 -11 -65 l-1 -30 -8 34 c-6 23 -2 54 11 101
16 60 33 170 54 363 4 31 11 57 16 57 6 0 8 -17 5 -42z m-431 -30 c-4 -18 -16
-46 -27 -61 -11 -15 -24 -40 -28 -55 l-8 -27 -1 25 c-1 14 10 42 23 61 14 20
28 48 32 63 9 38 17 32 9 -6z m771 -32 c-9 -30 -21 -58 -26 -61 -15 -9 -11 28
5 49 8 11 15 29 15 41 0 12 3 25 7 28 14 15 14 -4 -1 -57z m-826 -13 c-20 -30
-29 -39 -25 -23 8 26 47 80 54 74 2 -2 -11 -25 -29 -51z m871 -30 c-8 -15 -10
-15 -11 -2 0 17 10 32 18 25 2 -3 -1 -13 -7 -23z m236 -5 c-3 -8 -6 -5 -6 6
-1 11 2 17 5 13 3 -3 4 -12 1 -19z m6274 -69 c-5 -26 -9 -34 -10 -19 -1 27 9
73 15 67 2 -2 0 -23 -5 -48z m-6535 -6 c-11 -21 -15 -23 -16 -10 0 24 22 65
27 50 2 -6 -3 -24 -11 -40z m-849 -40 c-3 -10 -5 -2 -5 17 0 19 2 27 5 18 2
-10 2 -26 0 -35z m800 -8 c-6 -20 -14 -32 -19 -27 -10 10 10 62 23 62 4 0 2
-16 -4 -35z m-756 -120 c-12 -49 -28 -119 -36 -155 l-15 -65 6 54 c3 30 11 77
18 105 8 28 20 85 27 126 8 43 15 65 17 50 2 -13 -6 -65 -17 -115z m7254 -30
c-14 -81 -30 -155 -35 -164 -12 -20 -10 -5 26 182 15 75 29 136 31 133 2 -2
-7 -70 -22 -151z m60 27 c-9 -53 -21 -101 -26 -107 -7 -7 -9 -5 -5 5 2 8 12
65 22 125 10 61 20 102 22 92 2 -10 -4 -62 -13 -115z m-6470 88 c-4 -12 -9
-19 -12 -17 -3 3 -2 15 2 27 4 12 9 19 12 17 3 -3 2 -15 -2 -27z m-898 -12
c-3 -7 -5 -2 -5 12 0 14 2 19 5 13 2 -7 2 -19 0 -25z m-30 -10 c-3 -8 -6 -5
-6 6 -1 11 2 17 5 13 3 -3 4 -12 1 -19z m884 -19 c-9 -22 -10 -22 -10 -3 -1
11 2 24 6 27 12 12 14 0 4 -24z m-870 -40 c-6 -16 -10 -18 -10 -7 -1 22 12 55
16 42 2 -6 -1 -22 -6 -35z m916 -31 c-3 -8 -6 -5 -6 6 -1 11 2 17 5 13 3 -3 4
-12 1 -19z m-930 -30 c-3 -7 -5 -2 -5 12 0 14 2 19 5 13 2 -7 2 -19 0 -25z
m23 -55 c-7 -37 -15 -62 -18 -55 -5 15 20 134 26 127 3 -2 -1 -35 -8 -72z
m-62 -5 c-8 -12 -21 -24 -28 -26 -8 -3 -6 5 6 21 23 32 42 36 22 5z"/>
<path d="M5000 6486 c0 -9 40 -13 46 -5 3 5 -6 9 -20 9 -14 0 -26 -2 -26 -4z"/>
<path d="M5100 6341 c0 -29 15 -33 16 -5 1 13 -2 24 -7 24 -5 0 -9 -9 -9 -19z"/>
<path d="M3080 6100 c0 -11 5 -20 10 -20 6 0 10 9 10 20 0 11 -4 20 -10 20 -5
0 -10 -9 -10 -20z"/>
<path d="M3569 5215 c-3 -2 -48 -7 -100 -11 -52 -3 -98 -10 -103 -15 -6 -6 -5
-9 2 -9 7 0 11 -6 10 -12 -3 -15 13 -14 117 2 81 12 127 28 119 41 -5 9 -37
12 -45 4z"/>
<path d="M4403 5176 c9 -7 55 -21 101 -31 75 -16 95 -16 180 -5 90 12 140 30
124 45 -4 4 -37 2 -74 -4 -61 -11 -177 -9 -304 5 -40 4 -43 3 -27 -10z"/>
<path d="M3323 5163 c9 -2 23 -2 30 0 6 3 -1 5 -18 5 -16 0 -22 -2 -12 -5z"/>
<path d="M3010 4980 c0 -19 3 -21 12 -12 9 9 9 15 0 24 -9 9 -12 7 -12 -12z"/>
<path d="M2966 4925 c-19 -72 -20 -81 -18 -144 1 -24 5 -41 9 -37 4 4 6 35 5
68 -3 55 -2 60 12 49 14 -12 16 -9 15 20 0 19 -4 43 -8 54 -7 17 -9 16 -15
-10z"/>
<path d="M2976 4826 c3 -9 11 -16 16 -16 13 0 5 23 -10 28 -7 2 -10 -2 -6 -12z"/>
<path d="M4994 4819 c-3 -6 0 -17 8 -25 13 -13 16 -13 27 0 7 8 10 20 6 26 -8
13 -32 13 -41 -1z"/>
<path d="M2970 4750 c0 -5 5 -10 11 -10 5 0 7 5 4 10 -3 6 -8 10 -11 10 -2 0
-4 -4 -4 -10z"/>
<path d="M3375 4631 c-3 -5 -1 -12 5 -16 5 -3 10 1 10 9 0 18 -6 21 -15 7z"/>
<path d="M3410 4610 c-8 -5 -12 -11 -10 -14 3 -2 14 2 24 10 22 15 10 19 -14
4z"/>
<path d="M3300 4580 c-19 -10 -45 -24 -58 -31 -23 -13 -40 -54 -27 -67 6 -7
40 28 47 49 2 5 14 11 28 13 35 4 70 24 70 41 0 20 -17 18 -60 -5z"/>
<path d="M3312 4489 c-7 -12 -11 -24 -8 -27 3 -3 6 0 6 7 0 7 4 10 9 7 5 -3
11 3 14 14 7 26 -5 26 -21 -1z"/>
<path d="M3186 4265 c3 -16 11 -34 17 -40 6 -7 7 0 3 20 -4 17 -12 35 -17 40
-7 7 -8 0 -3 -20z"/>
<path d="M4565 4147 c-4 -10 -5 -21 -1 -24 10 -10 18 4 13 24 -4 17 -4 17 -12
0z"/>
<path d="M3410 4111 c0 -28 25 -33 26 -5 1 15 -4 24 -12 24 -8 0 -14 -9 -14
-19z"/>
<path d="M4221 4087 c-9 -12 -8 -16 3 -20 19 -7 27 4 17 21 -6 10 -10 10 -20
-1z"/>
<path d="M4091 4053 l-24 -23 34 6 c51 9 61 13 55 23 -12 19 -42 16 -65 -6z"/>
<path d="M3764 4059 c-9 -15 13 -28 37 -22 15 4 17 8 8 19 -14 17 -35 18 -45
3z"/>
<path d="M3491 4018 c6 -18 14 -41 19 -50 6 -10 7 -24 4 -33 -4 -10 0 -15 12
-16 17 0 16 -2 -3 -11 -26 -12 -26 -42 0 -66 15 -14 20 -14 27 -2 7 12 13 10
29 -9 12 -13 21 -36 22 -50 0 -14 3 -21 5 -15 9 22 45 1 60 -34 27 -66 46 -76
128 -68 153 16 193 17 234 8 34 -8 44 -7 48 3 4 10 13 11 36 4 17 -4 35 -6 40
-3 5 3 15 1 23 -6 10 -9 20 -7 39 6 21 13 29 14 40 5 12 -10 21 -8 43 6 15 9
31 21 34 26 3 4 13 5 22 1 9 -3 27 3 41 13 29 20 36 49 10 39 -14 -6 -16 -1
-10 35 5 31 4 39 -6 33 -10 -6 -10 -5 -1 7 11 14 13 19 13 41 0 6 13 -3 29
-20 22 -26 28 -29 27 -14 -1 25 -56 82 -79 82 -9 0 -22 -11 -27 -25 -11 -29
-27 -33 -32 -7 -3 9 6 26 19 37 21 18 23 25 15 60 -8 40 -24 51 -50 32 -8 -7
-11 -21 -7 -38 8 -35 -10 -69 -35 -69 -11 0 -20 -4 -20 -9 0 -5 -12 -8 -27 -6
-16 2 -32 0 -38 -4 -26 -19 -250 -47 -259 -33 -3 5 -31 10 -63 11 -32 0 -72 6
-90 12 -18 6 -37 8 -43 4 -6 -3 -16 0 -24 7 -51 49 -65 57 -76 42 -10 -11 -8
-15 6 -21 48 -18 47 -63 -1 -63 -18 0 -24 7 -29 39 -3 22 -9 41 -14 43 -12 5
-72 85 -72 97 0 6 -7 11 -14 11 -12 0 -13 -6 -5 -32z m169 -212 c0 -3 -4 -8
-10 -11 -5 -3 -10 -1 -10 4 0 6 5 11 10 11 6 0 10 -2 10 -4z"/>
<path d="M3878 4033 c12 -2 30 -2 40 0 9 3 -1 5 -23 4 -22 0 -30 -2 -17 -4z"/>
<path d="M3953 4029 c14 -8 22 -8 30 0 8 8 3 11 -18 11 -26 -1 -28 -2 -12 -11z"/>
<path d="M3631 3984 c0 -11 3 -14 6 -6 3 7 2 16 -1 19 -3 4 -6 -2 -5 -13z"/>
<path d="M3562 3749 c-1 -16 2 -29 8 -29 12 0 14 47 2 54 -4 2 -9 -9 -10 -25z"/>
<path d="M3860 3540 c0 -5 5 -10 10 -10 6 0 10 5 10 10 0 6 -4 10 -10 10 -5 0
-10 -4 -10 -10z"/>
<path d="M3636 2415 c4 -11 32 -65 62 -120 30 -55 61 -112 69 -127 16 -30 21
-32 42 -19 21 13 9 36 -89 166 -96 128 -93 125 -84 100z"/>
<path d="M5700 2391 c0 -10 40 -46 67 -60 12 -6 35 -8 51 -5 41 8 67 -8 139
-84 35 -36 66 -63 69 -59 9 8 -97 129 -142 164 -28 21 -42 25 -74 20 -27 -3
-51 1 -75 13 -19 10 -35 15 -35 11z"/>
<path d="M3310 7220 c0 -5 5 -10 10 -10 6 0 10 5 10 10 0 6 -4 10 -10 10 -5 0
-10 -4 -10 -10z"/>
<path d="M2720 6580 c0 -5 7 -7 15 -4 8 4 15 8 15 10 0 2 -7 4 -15 4 -8 0 -15
-4 -15 -10z"/>
<path d="M5875 4520 c-9 -16 -13 -30 -11 -30 3 0 12 14 21 30 9 17 13 30 11
30 -3 0 -12 -13 -21 -30z"/>
<path d="M5789 4510 c-13 -10 -19 -19 -13 -20 6 0 19 9 29 20 23 26 14 26 -16
0z"/>
<path d="M3005 2610 c-3 -6 1 -7 9 -4 18 7 21 14 7 14 -6 0 -13 -4 -16 -10z"/>
<path d="M3042 2601 c-12 -11 -39 -22 -60 -26 -20 -3 -48 -15 -62 -26 l-25
-19 47 3 c42 4 79 24 143 79 20 17 -21 6 -43 -11z"/>
<path d="M2984 2514 c-44 -43 -76 -56 -119 -48 -19 3 -41 2 -51 -4 -15 -8 -12
-11 17 -18 19 -4 43 -6 54 -5 45 7 116 55 136 94 15 27 2 20 -37 -19z"/>
<path d="M2911 2511 c-25 -3 -46 -12 -49 -18 -5 -18 42 -16 78 2 28 14 40 27
23 23 -5 0 -28 -4 -52 -7z"/>
<path d="M2700 2440 l-25 -8 28 -1 c15 -1 27 4 27 9 0 6 -1 10 -2 9 -2 -1 -14
-5 -28 -9z"/>
<path d="M2748 2443 c7 -3 16 -2 19 1 4 3 -2 6 -13 5 -11 0 -14 -3 -6 -6z"/>
<path d="M2476 2339 c-14 -17 -26 -34 -26 -37 0 -4 -11 -20 -25 -35 -14 -15
-21 -27 -15 -27 6 0 9 -4 6 -9 -4 -5 3 -7 14 -4 23 6 68 63 50 63 -6 0 -10 6
-8 12 3 7 13 13 23 13 10 0 20 7 22 15 4 13 3 13 -6 0 -5 -8 -13 -11 -17 -7
-4 4 1 16 11 27 10 11 13 20 7 20 -5 0 -22 -14 -36 -31z m-11 -72 c-4 -8 -15
-17 -26 -20 -24 -7 -24 -2 3 23 24 22 32 21 23 -3z"/>
<path d="M2537 2333 c-4 -3 -7 -11 -7 -17 0 -6 5 -5 12 2 6 6 9 14 7 17 -3 3
-9 2 -12 -2z"/>
<path d="M2397 2311 c-21 -14 -24 -20 -14 -24 8 -3 20 0 26 6 7 7 16 12 22 12
11 0 14 19 2 21 -4 2 -21 -6 -36 -15z"/>
<path d="M2188 2153 c12 -2 32 -2 45 0 12 2 2 4 -23 4 -25 0 -35 -2 -22 -4z"/>
<path d="M2445 2139 c-16 -11 -23 -19 -15 -19 16 1 56 27 49 34 -2 2 -17 -5
-34 -15z"/>
<path d="M1975 2120 c-22 -11 -33 -19 -25 -19 8 0 31 8 50 19 46 25 27 25 -25
0z"/>
<path d="M2370 2126 c0 -2 9 -6 20 -9 11 -3 18 -1 14 4 -5 9 -34 13 -34 5z"/>
<path d="M1725 2051 c-22 -11 -36 -20 -32 -20 12 -1 77 27 77 33 0 8 0 8 -45
-13z"/>
<path d="M1450 1985 c-19 -7 -28 -14 -20 -14 8 0 29 6 45 14 39 17 21 18 -25
0z"/>
<path d="M6620 1979 c14 -11 41 -27 60 -36 19 -8 56 -35 82 -59 53 -49 67 -53
93 -24 18 20 17 20 -11 20 -22 0 -26 -3 -14 -10 12 -8 11 -10 -5 -10 -12 0
-39 18 -60 41 -22 22 -66 54 -97 70 -67 34 -83 37 -48 8z"/>
<path d="M1470 1965 c-14 -8 -37 -14 -52 -15 -16 0 -28 -4 -28 -10 0 -5 8 -10
18 -10 19 0 102 36 102 45 0 8 -13 5 -40 -10z"/>
<path d="M6168 1867 c-34 -54 -148 -286 -176 -357 -67 -170 -157 -515 -211
-805 -30 -160 -73 -464 -68 -484 3 -12 5 -10 6 5 0 12 19 90 40 175 22 85 52
217 66 294 91 489 146 709 209 833 19 37 73 132 120 212 75 129 83 146 68 158
-23 17 -24 17 -54 -31z"/>
<path d="M6312 1678 c-37 -64 -49 -94 -41 -99 12 -7 7 -42 -16 -129 l-7 -25
21 25 c22 27 55 112 56 145 1 11 18 49 38 84 30 49 35 66 26 77 -6 8 -14 14
-18 14 -4 0 -30 -41 -59 -92z"/>
<path d="M931 1727 c-19 -7 -36 -18 -39 -25 -3 -11 3 -10 26 2 17 9 47 16 66
16 19 0 38 5 41 10 8 14 -52 12 -94 -3z"/>
<path d="M1025 1710 c-11 -5 -37 -9 -57 -9 -24 -1 -47 -10 -68 -27 -37 -32
-33 -45 5 -16 14 12 50 26 78 32 29 6 59 15 67 20 18 12 2 12 -25 0z"/>
<path d="M3137 1422 c-21 -59 -53 -159 -73 -222 -91 -299 -135 -452 -154 -532
-18 -75 -120 -638 -120 -660 0 -4 9 -8 20 -8 22 0 21 -3 45 155 22 146 79 428
109 540 63 236 132 467 178 597 49 136 62 208 41 229 -4 4 -25 -40 -46 -99z"/>
<path d="M769 1503 c-13 -16 -12 -17 4 -4 9 7 17 15 17 17 0 8 -8 3 -21 -13z"/>
<path d="M6198 1347 c-50 -75 -139 -295 -193 -476 -14 -47 -34 -146 -45 -220
-22 -151 -44 -420 -36 -429 4 -3 6 1 6 9 0 8 7 50 15 95 8 44 19 129 25 189
22 214 50 333 137 580 25 72 58 155 73 185 42 90 50 117 18 67z"/>
<path d="M599 1238 c-38 -57 -62 -108 -56 -115 2 -2 10 11 17 29 7 18 23 47
35 63 25 34 48 75 42 75 -2 0 -20 -24 -38 -52z"/>
<path d="M5849 1244 c-5 -15 -8 -29 -5 -31 2 -2 8 10 14 26 13 38 5 41 -9 5z"/>
<path d="M5817 1143 c-9 -31 -15 -59 -12 -61 2 -2 11 21 20 53 9 31 15 58 12
61 -2 2 -11 -21 -20 -53z"/>
<path d="M486 1125 c-11 -8 -15 -15 -9 -15 6 0 16 7 23 15 16 19 11 19 -14 0z"/>
<path d="M488 1102 c-21 -14 -36 -28 -33 -30 8 -8 56 21 66 40 12 22 13 22
-33 -10z"/>
<path d="M527 1096 c-4 -9 -22 -22 -42 -30 -44 -19 -48 -40 -4 -24 29 10 67
53 57 64 -3 3 -8 -2 -11 -10z"/>
<path d="M5791 1054 c0 -11 3 -14 6 -6 3 7 2 16 -1 19 -3 4 -6 -2 -5 -13z"/>
<path d="M5812 1038 c-6 -18 -36 -118 -67 -223 -43 -146 -59 -220 -70 -320
-20 -177 -43 -390 -50 -448 -5 -45 -5 -47 20 -47 23 0 25 3 25 48 0 26 7 101
15 167 9 66 22 185 30 265 17 163 42 301 86 469 16 63 27 116 25 119 -3 2 -9
-11 -14 -30z"/>
<path d="M3586 888 c-3 -13 -6 -57 -6 -98 0 -49 -9 -106 -25 -165 -14 -50 -28
-126 -31 -170 -9 -108 -56 -317 -88 -387 -31 -67 -31 -68 -8 -68 31 0 106 262
136 475 9 61 27 144 40 185 32 101 35 175 9 218 -20 32 -21 32 -27 10z"/>
<path d="M3780 855 c-28 -30 -79 -41 -110 -25 -21 11 -22 10 -17 -11 7 -28 -1
-69 -37 -199 -14 -52 -33 -135 -41 -185 -18 -112 -59 -288 -86 -367 -21 -62
-20 -74 4 -65 17 6 36 76 82 297 53 259 95 427 112 447 13 17 14 16 9 -7 -2
-14 -19 -77 -36 -140 -17 -63 -47 -197 -66 -297 -19 -101 -41 -204 -49 -230
-19 -62 -19 -73 3 -73 22 0 50 114 92 368 16 100 42 225 57 278 24 90 38 118
94 194 28 37 20 48 -11 15z"/>
<path d="M3789 808 c-17 -24 -37 -57 -44 -73 -20 -47 -55 -189 -71 -290 -8
-49 -21 -132 -30 -184 -8 -51 -23 -128 -34 -169 -25 -93 -25 -92 0 -92 14 0
20 7 20 21 0 12 11 62 24 113 13 50 27 123 30 162 3 40 10 83 15 96 5 13 12
51 16 84 3 32 15 88 25 124 10 36 22 83 26 105 3 22 19 60 35 84 47 72 37 86
-12 19z"/>
<path d="M386 795 c-3 -9 -6 -22 -5 -28 0 -7 5 -1 10 12 5 13 8 26 5 28 -2 2
-6 -3 -10 -12z"/>
<path d="M6421 665 c-26 -49 -24 -72 2 -31 15 23 33 76 26 76 -2 0 -15 -20
-28 -45z"/>
<path d="M5630 588 c-18 -42 -24 -75 -26 -162 -2 -59 -10 -167 -19 -240 -8
-72 -17 -143 -19 -158 -2 -21 2 -28 15 -28 14 0 18 13 24 73 3 39 13 126 21
192 13 108 33 366 29 373 -1 1 -12 -21 -25 -50z"/>
<path d="M6382 577 c-52 -105 -65 -160 -83 -362 -6 -60 -13 -134 -16 -162 -4
-42 -2 -53 10 -53 18 0 27 30 27 97 0 28 5 64 11 80 6 15 17 96 25 180 8 83
21 171 29 194 17 46 15 62 -3 26z"/>
<path d="M5557 430 c-8 -29 -42 -263 -53 -363 -6 -68 -6 -69 17 -65 23 3 24 9
40 145 16 140 14 341 -4 283z"/>
<path d="M6267 403 c-8 -15 -18 -48 -21 -73 -4 -25 -11 -65 -16 -90 -5 -25
-11 -89 -14 -143 -5 -92 -4 -97 14 -97 17 0 20 7 20 40 0 22 4 70 10 107 11
75 28 276 24 281 -1 2 -9 -9 -17 -25z"/>
</g>
</svg>
